<svg xmlns="http://www.w3.org/2000/svg" viewBox="0 0 218.93 256"><defs><style>.cls-1{fill:#24439c;}</style></defs><g id="Слой_2" data-name="Слой 2"><g id="Слой_1-2" data-name="Слой 1"><path class="cls-1" d="M60.07,190.13l15.11-29.26c-11.12-9-17.66-20.34-18.21-34.58-.54-14,5-25.71,15.24-35.58-7.64-9.67-15-19.07-22.6-28.62-9.69,4.74-19.36,5.66-29.15,1.65a32.34,32.34,0,0,1-17-15.87A33.15,33.15,0,0,1,57.65,10.76C67.05,21,71.86,40.32,56,57.53c.54.81,1,1.71,1.67,2.5,6.8,8.63,13.63,17.23,20.71,26.18,14.29-7.9,28.82-8.76,43.94-1.59q9.51-15.9,18.7-31.25c-10.58-14.24-11-26.9-1.55-37.24a26,26,0,0,1,43.46,26.61,25.51,25.51,0,0,1-14.68,15c-6.87,2.87-13.75,2.28-20.72-.48L128.81,88.47c15.44,13.31,21.22,29.85,15.76,50.2l24.79,8.18c11.91-14.13,24.21-17.48,36.65-10.26a26,26,0,0,1-17.87,48c-13.34-2.33-21-13.18-21.06-30.47l-25.38-8.46c-6.19,10.18-14.46,17.88-25.95,21.55s-22.68,2.79-34-2.43c-5.06,9.77-10,19.32-15.16,29.28,9.4,7.69,14.63,17.29,14.09,29.55a32.69,32.69,0,0,1-8.62,21A34,34,0,0,1,15.23,209C22.25,192.05,38,185.28,60.07,190.13ZM101.75,87.38a37.31,37.31,0,0,0-.14,74.62,37.31,37.31,0,1,0,.14-74.62ZM20.34,222.18a26.52,26.52,0,0,0,26.25,26.29,26.51,26.51,0,1,0,.06-53A26.45,26.45,0,0,0,20.34,222.18ZM58.87,33.37A25.92,25.92,0,0,0,33.44,7.49C19.56,7.28,7.71,18.9,7.54,32.9A25.93,25.93,0,0,0,33,58.78,25.93,25.93,0,0,0,58.87,33.37ZM193.09,140.56a18.47,18.47,0,1,0,18.36,18.51A18.62,18.62,0,0,0,193.09,140.56ZM158.75,15.32a18.19,18.19,0,0,0-18.46,18.09,18.35,18.35,0,1,0,36.7.23A18.18,18.18,0,0,0,158.75,15.32Z"/><path class="cls-1" d="M127.29,123.25c-.06.58.2,1.9-.34,2.53a6.17,6.17,0,0,1-3.5,2.27c-2.17.2-3.42-1.37-3.52-3.54a19.33,19.33,0,0,0-5.86-13.23c-1.83-1.83-2.17-3.92-.08-5.8,1.93-1.73,3.82-1,5.44.58A25,25,0,0,1,127.29,123.25Z"/><path class="cls-1" d="M104.51,99.14a13.13,13.13,0,0,1,3,.77,3.32,3.32,0,0,1,1.75,4.74c-1.43,3.17-4.26,2-6.76,1.84-2.28-.18-4.11-.89-4.28-3.48-.14-2.22,1.07-3.53,3.26-3.86A27.57,27.57,0,0,1,104.51,99.14Z"/></g></g></svg>