<svg xmlns="http://www.w3.org/2000/svg" viewBox="0 0 256 256"><defs><style>.cls-1{fill:#24439c;}</style></defs><g id="Слой_2" data-name="Слой 2"><g id="Слой_1-2" data-name="Слой 1"><path class="cls-1" d="M130,256h-4a8.4,8.4,0,0,0-1.1-1.56,119.82,119.82,0,0,1-21.32-26.31c-.5-.82-1.12-1.57-1.83-2.55-12.06,6.34-24.09,12.15-38.15,13.76-5.42-13.14-6.49-26.46-7-40-13.92-.45-27.24-1.37-40.17-7.21,2.15-13.92,7.55-26,13.94-37.82-4.57-3.13-9.16-5.85-13.25-9.18C11.25,140.29,5.7,135.05,0,130v-4a8.74,8.74,0,0,0,1.56-1.1,119.3,119.3,0,0,1,26.31-21.32c.82-.5,1.57-1.12,2.53-1.82C24.11,89.69,18.26,77.67,16.66,63.64c13.12-5.51,26.46-6.48,40-7,.61-13.87,1.38-27.22,7-39.49,2.08,0,3.46-.25,4.71,0a123.94,123.94,0,0,1,33.34,13.28c3.17-4.62,5.89-9.2,9.22-13.29C115.7,11.25,121,5.7,126,0h4a15.23,15.23,0,0,0,1.48,1.89,119.51,119.51,0,0,1,20.67,25.56c.57,1,1.3,1.85,2.1,3,12.05-6.35,24.1-12.1,38.2-13.83,5.26,13.23,6.46,26.52,6.91,39.79,7.16.66,13.83.85,20.35,2s13.5,1.62,19.6,5.92c-1.75,13.6-7.45,25.54-13.69,37.46,4.54,3.12,9.13,5.84,13.22,9.17,5.91,4.8,11.46,10,17.16,15.09v4a13.74,13.74,0,0,0-1.9,1.47,118.61,118.61,0,0,1-25.55,20.67c-1,.58-1.85,1.31-2.94,2.1,6.26,12.08,12.14,24.09,13.72,38.18-13.14,5.38-26.45,6.48-40,6.92-.62,13.92-1.38,27.27-7.23,40-14-1.81-25.95-7.52-37.89-13.78-2.91,4.3-5.42,8.63-8.54,12.45C140.68,244.2,135.25,250,130,256Zm38.26-127.06c1.09,0,1.9.07,2.7,0,16.46-1.72,30.29-8.44,40.79-21.47,8.59-10.66,14.24-22.8,18.13-35.82a14.39,14.39,0,0,0,.18-3.17c-18.27-4.34-36.27-6-54.2.42-12.35,4.42-21.43,12.85-28.55,23.63C163.22,105.65,166.26,110.9,168.26,128.94Zm-8.19-.87a32.07,32.07,0,1,0-32.14,32A32.1,32.1,0,0,0,160.07,128.07Zm-4,57.86-17.14-19.47c-10.85,3-21.43,1.38-31.78-4.32-5.76,11.31-8.61,22.9-6.65,35.32,3,19.2,13.4,34.45,26.58,48.09.29.29.89.29,1.63.52C144.57,228.8,157.19,210.13,156.06,185.93Zm74,1.57c-1.84-20.79-22.25-49-38.56-54.71l-23.86,4.81c-2.76,5.07-4.84,10.26-8.12,14.52s-7.88,7.8-11.91,11.66c8,12.45,18.86,20.91,32.49,24.72C196.72,193.15,213.27,191.64,230.05,187.5ZM108.76,92.56C100,79.43,88.57,70.34,73.12,66.73a88.77,88.77,0,0,0-31.29-1.2c-5.36.65-10.66,1.88-15.9,2.83,1.95,20.83,21.68,48.32,38.48,54.87l24.56-5C95.78,102.8,96,102.53,108.76,92.56Zm-82.94,95c23.33,5.23,46,6.92,66.09-6.39l8.27-24.54c-8.17-8-11.88-18.09-12.36-29.68-14.85,1-27.72,5.59-38.2,15.85-12,11.74-19,26.34-23.65,42.21A15.06,15.06,0,0,0,25.82,187.53ZM128,9.16c-16.58,18.15-29.39,36.89-28,61,6.14,7,11.5,13.08,17.14,19.48,7.2-2.24,14.77-1.86,21.77-.09L156,70.12C157.25,45.85,144.54,27.12,128,9.16ZM247.21,128.52c-8.61-8.3-16.75-14.9-25.55-19.45L201.45,128l20.74,19.49ZM34.27,109A112.35,112.35,0,0,0,9.42,128a110.34,110.34,0,0,0,24.9,19l20.25-19ZM64.91,56.39l26.35,8c2-8.58,4.12-17.55,6.35-27A99.9,99.9,0,0,0,68.7,25.5C65.85,36.12,64.36,46.23,64.91,56.39ZM91.24,191.6l-26.32,8c-.59,10,.9,20.29,3.78,30.88a97.56,97.56,0,0,0,28.9-11.86ZM191.13,56.38a94.54,94.54,0,0,0-4-31c-10.78,2.86-20.48,6.73-28.71,12.06l6.28,26.93ZM164.75,191.57c-2.05,8.67-4.16,17.66-6.38,27.08,8.84,5.07,18.29,9.53,29,11.84,2.66-10.76,4.35-20.85,3.7-30.86Z"/></g></g></svg>