<svg xmlns="http://www.w3.org/2000/svg" viewBox="0 0 230.83 256"><defs><style>.cls-1{fill:#24439c;}</style></defs><g id="Слой_2" data-name="Слой 2"><g id="Слой_1-2" data-name="Слой 1"><path class="cls-1" d="M191.71,126.15c-1.1,6.14-2.47,14.59-4.15,23q-10.11,50.76-20.38,101.48a19.34,19.34,0,0,1-.49,2.52,3.67,3.67,0,0,1-4.31,2.81c-2.29-.31-3.16-1.89-3.16-4a15.94,15.94,0,0,1,.5-3Q169.37,201,179,153c1.35-6.73,3-13.44,3.81-20.24,3.13-25.21-5.65-45.56-27.08-59.14C121.81,52.13,87.34,31.53,53.1,10.56c-1.76-1.08-3.53-2.13-5.24-3.28S44.68,4.39,46,2.11,49.55-.52,51.78.75c3.73,2.12,7.37,4.39,11,6.64,32.63,20,65.42,39.72,97.8,60.1C181.06,80.36,190.49,99.87,191.71,126.15Z"/><path class="cls-1" d="M121.3,126a17.73,17.73,0,0,1-17-12.48c-.66-2.13-.94-4.39-1.71-6.46A25,25,0,0,0,92,94.15Q61,74.72,30.19,55.09a34.48,34.48,0,0,1-3.41-2.3c-1.9-1.55-2.18-3.52-.73-5.44a3.47,3.47,0,0,1,5-.83q5,3.12,10,6.28C59.38,64.36,77.6,76,95.92,87.47a32.52,32.52,0,0,1,15.23,21.65c1.51,7,7.09,10.49,13.29,8.49a9.78,9.78,0,0,0,6.7-7.23,24.19,24.19,0,0,1,7.22-11.61c4.42-4.18,5.14-9.15,2.41-13.42s-7.54-5.79-13.11-3.7a21.57,21.57,0,0,1-20.18-2Q73.78,58.33,40,37.06a3.19,3.19,0,0,0-.42-.3c-3.39-1.45-4.26-4.48-2.75-6.59,1.37-1.92,3.62-2,6.88.06Q67.92,45.46,92.05,60.75c5.81,3.66,11.73,7.15,17.38,11,5.41,3.72,10.72,4.25,17,2.12C137.91,70,148.87,77.34,150,89.15a16.61,16.61,0,0,1-5.39,14.42,23,23,0,0,0-6.51,10.26A17.35,17.35,0,0,1,121.3,126Z"/><path class="cls-1" d="M123.54,133.05c6.58,3.14,16.15,2.49,22.87,9.39,2,2.09,4.44,3.82,6.4,6,4.89,5.32,4.85,12.68-.55,17.47-8.6,7.61-12.52,17.3-14.19,28.34-2,13.23-4.34,26.42-6.56,39.62-.25,1.52-.26,3.33-1.12,4.43s-2.84,2.37-4,2.13-2.29-2.13-3.09-3.49c-.34-.58.12-1.65.27-2.5q4-23.6,8.1-47.2a45.6,45.6,0,0,1,13.67-25.4c4.41-4.31,4.46-5.92,0-10a48.41,48.41,0,0,0-5.4-4.76c-5.47-3.63-11.95-5.14-18.14-6.06-6.42-.95-10.73,7.37-7.66,13.33a26.44,26.44,0,0,0,2.31,3.4,27.22,27.22,0,0,1,4.86,21c-2.85,17.62-5.88,35.22-8.91,52.81-.84,4.85-2.17,6.27-4.9,5.89s-3.56-2.35-2.67-7.56c2.76-16.24,5.47-32.5,8.34-48.72,1.39-7.83.45-14.86-4.73-21.33-4.22-5.27-4.49-11.48-1.41-17.47S115.15,133.25,123.54,133.05Z"/><path class="cls-1" d="M90,130.2c-5.19-2.43-10.14-4.71-15-7.06C53,112.66,32.32,100.25,13.84,84.37,9.68,80.79,5.79,76.9,2,73-.47,70.5-.54,68.34,1.2,66.73s3.93-1.49,6.28.92c24.43,25,54.34,41.56,86,55.37.78.34,1.6.62,2.38,1,4.07,1.88,4.59,3.58,2.6,7.74-2.44,5.1-5,10.16-7.12,15.39a56.08,56.08,0,0,0-3.3,30.32c1.66,10.65.34,21.31-1.85,31.74-2.14,10.23-5.12,20.29-7.74,30.42a12,12,0,0,1-.61,2c-.88,2-2.41,2.94-4.54,2.36a3.54,3.54,0,0,1-2.72-4.75C71.68,235,73.27,231,74.1,226.8c2.34-11.76,4.8-23.53,6.39-35.4.75-5.51-.09-11.3-.74-16.91-1.37-12,1.35-23.19,5.75-34.14C86.83,137,88.38,133.82,90,130.2Z"/><path class="cls-1" d="M159,136c-2.9-.23-5.81-.36-8.69-.71-7.21-.86-11-7.54-7.7-13.93a82,82,0,0,1,7.76-12.06,9.21,9.21,0,0,1,14.37-.43,108.35,108.35,0,0,1,9.71,12.58c4.26,6.58.07,14.38-7.76,14.88-2.55.16-5.13,0-7.69,0Zm-1.2-23.49c-3.78,4.84-6.77,8.93-9.12,14.8,7,.67,13.11,1.64,20.65.32Z"/><path class="cls-1" d="M214.76,66.27c1,.86,2.69,1.6,3.08,2.78a4.65,4.65,0,0,1-.94,4.06c-3.5,3.26-7.3,6.2-11,9.24-1.86,1.51-3.76,3-5.65,4.45s-3.86,1.6-5.49-.25a3.57,3.57,0,0,1,.41-5.48c5.53-4.61,11.17-9.08,16.8-13.55A14,14,0,0,1,214.76,66.27Z"/><path class="cls-1" d="M204.21,103.35c-1.16-1.11-3.06-2.13-3.42-3.53-.29-1.16.93-3.64,2-4,7.05-2.61,14.21-4.9,21.41-7.06a3.19,3.19,0,0,1,4.3,2.57c.14,1.34-.81,3.73-1.85,4.13C219.52,98.2,212.21,100.58,204.21,103.35Z"/><path class="cls-1" d="M208.75,112.52c4.78.46,9.57.89,14.35,1.38a34.78,34.78,0,0,1,4.07.63c2.22.48,3.88,1.61,3.64,4.18s-2.09,3.36-4.38,3.32c-1.71,0-3.43-.18-5.13-.35-4.78-.5-9.57-.94-14.33-1.59-4.05-.56-5.34-1.81-5.11-4.41s1.91-3.52,5.87-3.27Z"/></g></g></svg>