<svg xmlns="http://www.w3.org/2000/svg" viewBox="0 0 229.07 256"><defs><style>.cls-1{fill:#24439c;}</style></defs><g id="Слой_2" data-name="Слой 2"><g id="Слой_1-2" data-name="Слой 1"><path class="cls-1" d="M155.56,256h-11a22.18,22.18,0,0,0-2.79-1,39.67,39.67,0,0,1-25.38-18,18.14,18.14,0,0,0-1.73-2c-.48.27-.67.31-.76.43-.48.66-1,1.34-1.41,2a40.33,40.33,0,0,1-19.87,16c-2.63,1-5.37,1.69-8.06,2.52h-11a4.73,4.73,0,0,0-1.28-.73,40.14,40.14,0,0,1-26-17.08,9.8,9.8,0,0,0-3.87-2.86c-16.08-7.43-24.57-19.85-24.57-37.68,0-2.92-1.07-4.35-3.31-6C6.22,185.54,1.31,177.34.31,166.93A36.27,36.27,0,0,1,6,143.62l-1.39-2.81c-7-14-6.17-27.33,3.71-39.67C10,99,9.91,97.05,9.51,94.71c-2.8-16.36,4.76-31,19.73-38.23,2.36-1.13,4.87-2,7.55-3-.34-1.64-.66-3.07-.92-4.51A26.22,26.22,0,0,1,47.71,21.81c2.68-1.65,5.29-3.43,7.88-5.23,8.08-5.64,16.53-10.6,26-13.64,3.31-1.06,6.66-2,10-2.94h9l14.85,8c3.11-3.82,8-6.12,13.15-8h9a11.92,11.92,0,0,0,2.28.91,68.89,68.89,0,0,1,22.7,8.78c6,3.57,11.59,7.8,17.59,11.35,10.26,6.07,15.24,16.63,13,28.39-.27,1.4-.46,2.81-.67,4.14a19.5,19.5,0,0,0,1.83.75c18.81,5.38,29.29,24,25.14,41.36-.59,2.45.29,4,1.76,5.8,6.23,7.58,9,16.39,7.41,26.07-.89,5.49-3,10.78-4.81,17,0,0,.51,1.06,1,2.09,8.35,16.09,4,34.77-10.67,45.25a6,6,0,0,0-2.82,5.75c.2,17-9,30.8-24.64,37.69A11.79,11.79,0,0,0,182.3,239a41.27,41.27,0,0,1-18.74,14.39C160.94,254.41,158.23,255.15,155.56,256Zm61.89-105.91c-2.33,1.48-4.22,2.84-6.25,3.93a31.4,31.4,0,0,1-6.39,2.78,59.62,59.62,0,0,1-9.3,1.67c-2.5.26-4.73-.47-5.09-3.51-.3-2.5,1.06-3.93,4.23-4.49,1-.17,2-.14,3-.28,10.76-1.5,18.13-7.6,21.79-17.52s1.9-19.31-5.36-26.95c-3.35-3.53-4.14-6.45-2.82-11,3.27-11.42-1.9-23.4-12.21-29.67-9.55-5.8-22.59-4.58-31.2,2.91a26.75,26.75,0,0,0-9.43,19.16c-.24,3.53-1.82,5.16-4.37,4.87-3-.34-3.55-2.51-3.53-5.07a31.46,31.46,0,0,1,4.08-15.3c5.47-9.69,13.66-15.71,24.67-17.76,2.12-.39,4.28-.46,5.15-3.11,2.25-6.87,1.61-13.25-3.34-18.68-8.3-9.12-21.74-8-28.73,2.34-2.44,3.59-4.5,4.55-6.71,3.13s-2.21-3.8,0-7.5a24.94,24.94,0,0,1,11.55-9.93c1.1-.49,2.16-1.08,3.74-1.89-8.37-5.12-16.49-8.71-25.6-9.77C125.53,7.27,118.75,13,118.6,22.88c-.14,10.33,0,20.66,0,31a23,23,0,0,0,.61,3.43,18.94,18.94,0,0,1,3-1.61,78.38,78.38,0,0,1,9.62-2.34,3.58,3.58,0,0,1,4.19,3.4c.3,2.35-1.05,3.75-3.25,4.33-1.12.3-2.29.43-3.43.68a12.64,12.64,0,0,0-10.21,9.8,28.12,28.12,0,0,0-.58,6.93q0,64.25,0,128.47c0,3.67-.12,7.34.09,11a30.28,30.28,0,0,0,10.53,21.9c14.68,12.76,36,9.84,47-6.46a12.47,12.47,0,0,1,6.31-5.25c14.3-5.24,22.4-18.58,20.51-33.88-.44-3.54.59-5.7,3.73-7.23a24.37,24.37,0,0,0,11.79-12.45C222.16,166.36,222.05,158.21,217.45,150.09ZM68,18.3c2,.9,3.35,1.46,4.64,2.1a25.56,25.56,0,0,1,11.5,10.72c1.65,3,1.33,5.47-.92,6.5-2.57,1.17-4.5.19-5.83-2.19a19.41,19.41,0,0,0-1.34-2.12,18.06,18.06,0,0,0-32.25,14.3c1,4.71,1.63,5.34,6.32,6.26,11.59,2.26,19.94,8.85,25.21,19.29a29.51,29.51,0,0,1,3.22,15c-.13,2.33-1.37,3.72-3.77,3.82-2.2.08-3.35-1.25-3.89-3.19a13.55,13.55,0,0,1-.27-2.48C69,69.62,54.7,58.84,38.2,62c-13.32,2.5-25,17-20.12,33.5,1.16,3.93.55,6.7-2.55,9.76a26.19,26.19,0,0,0-2.17,34.27,26.1,26.1,0,0,0,19.41,10.86c4.58.36,6.11,1.64,6,4.42-.16,2.94-2.29,4.2-6.93,3.56a38.17,38.17,0,0,1-9.16-2.21c-3.76-1.52-7.27-3.66-11.24-5.72-.69,1.6-1.45,3.06-2,4.6A26.52,26.52,0,0,0,21.81,186.7c3.36,1.88,4.76,3.89,4.23,7.93a30.31,30.31,0,0,0,17.72,32.23A27.87,27.87,0,0,1,55,236.05C63.25,247,78,250.63,91,245.49c12.64-5,20.86-18.35,19.32-31.87-1.47-12.91-8.47-21.76-20.55-26.55-4.65-1.84-6-3.38-5-6s3.5-3.1,8.16-1.43a41.28,41.28,0,0,1,14.24,9c.9.85,1.83,1.68,3.22,2.94.1-2,.23-3.34.23-4.64q0-46,0-92c0-.83,0-1.67,0-2.5-.46-7-4.56-11.78-11.43-13.23-1-.21-2-.25-2.95-.49a3.64,3.64,0,0,1-3.08-4c.16-2.2,1.41-3.89,3.85-3.71a38.42,38.42,0,0,1,7.31,1.26,53,53,0,0,1,6.21,2.6c0-18.47.24-36.45-.12-54.42-.13-7-5.82-12.07-12.91-12.17C86.74,8.19,77.46,12.48,68,18.3Z"/><path class="cls-1" d="M168.39,118.56a15.94,15.94,0,0,0,12.25,13.56c1.29.32,2.62.47,3.93.71,3.47.65,5.14,2.25,4.57,4.63-.67,2.79-2.76,3.52-5.36,3.27-10.28-1-18.26-5.81-22-15.46-1.92-4.89-4.37-7-9.33-8.5-4.74-1.41-8.93-4.86-13.19-7.69a4,4,0,0,1-1.12-6.09c1.44-2,4.12-1.94,6.6.3,6.6,6,14.2,8.37,23,7a27,27,0,0,0,22-22.23c.24-1.65.35-3.32.67-5a3.52,3.52,0,0,1,3.88-3.1,3.64,3.64,0,0,1,3.77,3.3,15.17,15.17,0,0,1-.07,4.46,35.16,35.16,0,0,1-26.34,30Z"/><path class="cls-1" d="M168,181.44c1.31.07,3-.25,4.2.34,1.46.7,3.43,2.09,3.55,3.35s-1.51,3-2.75,4.09c-.74.64-2.22.45-3.38.56-13.1,1.34-22.64,10.77-24.2,23.93-.12,1-.15,2-.33,3-.41,2.28-1.75,3.58-4.13,3.47-2.71-.12-3.83-1.87-3.77-4.34a34.37,34.37,0,0,1,6.51-19.6A30.59,30.59,0,0,1,156,185.59c2.7-1.19,3.11-3,3-5.55a26.9,26.9,0,0,0-20.17-25,62.28,62.28,0,0,0-6.41-1c-2.49-.33-4.12-1.53-3.9-4.21s1.89-3.78,4.4-3.75a33.25,33.25,0,0,1,18.36,5.72,34.35,34.35,0,0,1,15.61,25c.17,1.31.41,2.62.63,3.92A3,3,0,0,0,168,181.44Z"/><path class="cls-1" d="M78.51,123.27c-1.66,7.62-5.37,13.53-11.66,17.72a24.19,24.19,0,0,1-12.65,4.08c-3.39.15-5.52-1.29-5.43-3.69.11-2.89,2.09-4,4.67-4.19,7.73-.63,13-4.61,16.06-11.65a10.11,10.11,0,0,0,.43-2.05c-3.75-1.45-7.59-2.55-11.09-4.34-11.42-5.86-17.51-15.46-19-28.11-.13-1.14-.38-2.56.14-3.43a7,7,0,0,1,3.34-3.15c2-.6,3.52.79,4.11,2.74a31.12,31.12,0,0,1,.71,4.44c1.46,10.52,7.28,17.78,17,21.59s18.64,2,26.76-4.37c.79-.62,1.48-1.36,2.3-1.92,1.88-1.3,3.84-1.39,5.39.4s1.32,3.72-.21,5.42a32.07,32.07,0,0,1-14.76,9C82.81,122.32,80.84,122.69,78.51,123.27Z"/><path class="cls-1" d="M48.44,190.38c.55-8.28,2.53-15.55,7.5-21.79a34.86,34.86,0,0,1,23.68-13.38,18.65,18.65,0,0,1,4.48,0c2.09.25,3.58,1.65,3.25,3.67a5.75,5.75,0,0,1-2.68,3.66c-1.54.8-3.55.64-5.35,1a27.2,27.2,0,0,0-22.61,24c-.36,3.21.17,5.37,3.54,7.22,11.13,6.09,17.43,15.62,18.27,28.47.07,1,.31,2.2-.14,2.94-.7,1.16-1.87,2.73-2.93,2.8a6.23,6.23,0,0,1-4-1.95c-.68-.66-.63-2.17-.75-3.31-1.43-13.79-10.52-23.19-24.27-25.07l-2.48-.32c-2.47-.31-4.17-1.55-3.95-4.19s2.11-3.6,4.56-3.66C45.67,190.36,46.82,190.38,48.44,190.38Z"/></g></g></svg>