<svg xmlns="http://www.w3.org/2000/svg" viewBox="0 0 256 254.65"><defs><style>.cls-1{fill:#24439c;}</style></defs><g id="Слой_2" data-name="Слой 2"><g id="Слой_1-2" data-name="Слой 1"><path class="cls-1" d="M0,159.34v-64c4.1-6.77,11-7.63,18.08-7.68V63.55c8.6-4.67,17-9.35,25.56-13.82a14.61,14.61,0,0,0,6.58-6.47C54.75,34.58,59.54,26,64.05,17.75c9.7,0,19-.28,28.32.12a19.65,19.65,0,0,0,12.17-3.3C112.19,9.61,120,4.93,128,0c8.22,5.06,16.35,9.91,24.29,15a17.81,17.81,0,0,0,10.78,2.9c9.47-.31,18.95-.1,28.92-.1,4.45,8.17,9.25,16.71,13.78,25.4a13.87,13.87,0,0,0,6.12,6.23c8.8,4.62,17.49,9.46,26.23,14.21V87.23a6.25,6.25,0,0,0,1.13.59,4.21,4.21,0,0,0,1.48.21c6.6-.72,11.55,2,15.25,7.31v64c-4.06,6.82-10.94,7.59-18,7.65v24.15c-8.85,4.81-17.57,9.63-26.38,14.27a12.45,12.45,0,0,0-5.49,5.49c-4.71,8.92-9.61,17.75-14.28,26.33-6.9,0-13.31.71-19.51-.16-10.92-1.53-20.1,1.4-28.71,8-4.83,3.68-10.38,6.41-15.65,9.6-8.22-5.07-16.2-9.84-24-14.87a17.61,17.61,0,0,0-10.75-2.94c-9.61.33-19.25.1-29.18.1-3.09-5.76-6.35-11.73-9.52-17.75C48,206.81,48,206.86,35.24,200.38c-5.88-3-11.62-6.27-17.34-9.37V167.19a7.61,7.61,0,0,0-2.17-.5C9,167.38,3.79,164.9,0,159.34Zm8.77-63.8c-.49,1.92-1.27,3.61-1.28,5.31q-.13,26.49,0,53c0,1.8.92,3.59,1.49,5.61H116.11v7c-21.59.55-42.8-.22-64.34.44,11.59,25.56,42.6,48.08,79,46.94,35.35-1.1,64.36-24.79,73.33-47.17H139.82V159.3H247.18c.5-2.06,1.32-3.88,1.33-5.71q.15-26.25,0-52.49c0-1.83-.83-3.66-1.29-5.56Zm71.5-48.62c17.61-10.45,36.18-14.69,55.87-12.72,35.51,3.54,60.81,22.32,77,53.51h17.21V67.62c-5.47-3-11-6.31-16.87-9.09-6.76-3.22-12.75-7-15.47-14.48a26.48,26.48,0,0,0-1.81-3.56c-2.94-5.34-5.9-10.68-8.51-15.4-8.19,0-15.55-.49-22.81.14-6.92.6-12.57-1.29-18.14-5.18-6-4.17-12.4-7.68-18.73-11.53-7.67,4.7-15.13,9.06-22.36,13.8a18.31,18.31,0,0,1-11.26,2.91c-8.47-.28-17-.08-26.13-.08C64.07,32.79,59.7,41,55.1,49a14.94,14.94,0,0,1-4.52,5c-3.17,2.09-6.73,3.6-10.09,5.43-5.08,2.78-10.12,5.62-14.68,8.16V87.78H43C50.32,73.5,59.6,61,73.32,51.68l3.83,5.71C66.37,65.76,57.69,75.17,51.76,87c4.84,1.62,148.47,1.44,152.11-.09C199,74.49,184,58.87,168.48,51c-28.41-14.41-56.74-13.17-84.87,1.85ZM42.87,167.06H25.64V186.8c1.54.95,3.3,2.19,5.18,3.2,6.43,3.49,13,6.82,19.34,10.39a12.77,12.77,0,0,1,4.37,3.88c1.89,2.92,3.26,6.16,4.93,9.23,3,5.52,6.06,11,8.9,16.18,8.06,0,15.58.47,23-.13,6.91-.57,12.58,1.35,18.14,5.19,6,4.13,12.4,7.68,18.59,11.46,4.61-2.86,9.11-5.15,13-8.18,9-7,18.84-9.89,30.24-8.36,5.21.7,10.59.12,16.21.12,2.54-4.57,5.67-9,7.59-13.88,4.06-10.38,11.19-17.2,21.41-21.41,5-2.06,9.54-5.19,13.73-7.53V167H213.16c-18.21,34.25-46.11,53.66-85,53.71C89.11,220.73,61.08,201.25,42.87,167.06Z"/><path class="cls-1" d="M184.39,108.78v36.46h-6.61l-12.95-20.1-1.19.32v20.4h-7.2V108.81a30.26,30.26,0,0,1,3.1-.32c1.14,0,2.29.19,3.58.32q6.56,10.17,13,20.28l1.33-.41v-19.9Z"/><path class="cls-1" d="M29.16,146V108.62c4.71,0,9-.4,13.25.09,6.49.75,10.14,6.15,9.07,12.56-.22,1.3-.52,2.59-.79,4,.61.86,1.22,1.64,1.76,2.46,4.76,7.24,1.09,16.77-7.48,18.15C40,146.63,34.77,146,29.16,146Zm7.16-7.18a56.94,56.94,0,0,0,7.07-.06c2.4-.31,4.17-2.08,3.67-4.42a6.34,6.34,0,0,0-3.45-4.15c-2.18-.7-4.76-.18-7.29-.18Zm0-16.52H42.9l1.84-3c-2.57-4-3.05-4.12-8.46-2.71Z"/><path class="cls-1" d="M85,131.68l8.28,10.37c-1.64,1.55-3.15,3-5,4.75l-10.54-12-1,.47V145.9H69.63v-37c5.46-.57,11.09-1.32,16.44.8,8,3.19,9.31,13.75,2.55,19.2C87.59,129.7,86.54,130.5,85,131.68Zm-7.86-7.87c3.07.93,5.84.7,7.81-1.63a4.31,4.31,0,0,0,.07-4c-1.89-3-4.84-2.83-8.11-1.84-.08,1.54-.21,3-.19,4.46A23.64,23.64,0,0,0,77.17,123.81Z"/><path class="cls-1" d="M200.08,144.48V108.6c6.3-.1,12.45-1.27,18.23,1.47,7.29,3.45,10.79,14.4,7.79,23.55-2.59,7.9-7.55,11.54-15.92,11.61-3,0-6-.07-9-.15C201,145.08,200.67,144.8,200.08,144.48Zm7.14-7.42c5.55,1.4,8.45.63,10.77-2.72,2.54-3.65,2.59-11.74.09-15.19-2.33-3.22-5.57-4-10.86-2.56Z"/><path class="cls-1" d="M117.74,138.73l-3.44,7.82-6.48-2.38,13.39-35.36h6.36c4.37,11.56,8.76,23.15,13.34,35.25l-6.59,2.71-3.19-8Zm10.67-7.8L125,122.57H123.9c-1,2.62-1.91,5.24-3,8.37Z"/><path class="cls-1" d="M131.49,166.18h-7v-6.45h7Z"/><path class="cls-1" d="M165.69,70.45V63.88h6.78v6.57Z"/><path class="cls-1" d="M157.44,63.21h-6.2V56.66h6.2Z"/></g></g></svg>