<svg xmlns="http://www.w3.org/2000/svg" viewBox="0 0 256 255.69"><defs><style>.cls-1{fill:#24439c;}</style></defs><g id="Слой_2" data-name="Слой 2"><g id="Слой_1-2" data-name="Слой 1"><path class="cls-1" d="M77.87,102.24c-8.25,2.81-15.56,1.67-22.15-3.16-4.79-3.51-7.24-8.23-6-14.34,1.3-6.35,5.51-10.28,11.93-11.22,1.39-.2,2.81-.26,4.11-.37,11.8-20,19.86-23.76,38.54-18,.35-1.9.7-3.76,1-5.62,2-11.42,12.78-16.07,22.52-9.74.59.38,1.14.82,1.56,1.12a89.22,89.22,0,0,0,8.47-5.68,11,11,0,0,0,2.77-4.77C146.18,14.59,157.09,4.43,173.5,1c24.16-5.11,48.26,10.76,53.65,34.88,3.67,16.41-1.09,30.53-12.12,42.79A81.47,81.47,0,0,1,189.9,97.24c-5,2.43-7.8,6.08-10.32,10.79-4.68,8.73-9.27,17.69-15.24,25.53-14.09,18.51-33.22,24.6-55.81,20-17.06-3.48-29.07-17-30.58-34.51C77.48,113.61,77.87,108.09,77.87,102.24Zm41-15c-.76,4.27-1.28,8-2.12,11.58-.54,2.29-2.15,3.75-4.71,3.28s-3.48-2.25-3.26-4.69c.12-1.23.44-2.44.62-3.67,1-6.73,1.31-13.47-.82-20-2.26-7-6.68-11.65-14.32-12.54-7.33-.86-12.8,2.29-16.68,8.24a45.27,45.27,0,0,0-4.1,8.6c-1.12,2.92-2.89,4.35-6,3.9a15.8,15.8,0,0,0-2.66-.12c-4.1.1-6.26,1.49-6.88,4.54-.7,3.39,1.41,5.32,3.89,6.9,6.77,4.29,13.7,2.82,17.88-4.08,1.91-3.16,3.13-6.74,4.66-10.13,1-2.19,2.57-3.54,5-2.73S93,79,92.06,81.68c-.66,2-1.41,4-2,6-3.25,10.24-5.24,20.62-3.74,31.46,1.85,13.42,10.58,23.43,23.74,26.22,19,4,35.39-.82,47.53-16.39a105.57,105.57,0,0,0,12.65-20.88c4.08-9,9.51-15.64,18.69-19.91a60.37,60.37,0,0,0,23.9-20c10.17-14.35,9.77-32.45-1.38-45.95-8.92-10.8-20.61-15.81-34.52-13.55s-23.36,10.56-28.15,23.93c-.6,1.66-.62,3.59-1.46,5.09-1,1.7-2.3,4-3.91,4.42-12.31,3.29-13.37,19.35-3.73,25,2.48,1.44,3.55,3.55,2,6.25-1.37,2.37-3.84,2.55-7,.4-6-4.17-9.7-9.79-9.93-17.32-.06-2,.2-3.91.11-5.86a5.1,5.1,0,0,0-4.48-5.16A5.24,5.24,0,0,0,114,49.07a18.1,18.1,0,0,0-.9,5.22c-.6,13.72,7.68,27,20.55,32,4.37,1.7,9.27,2.14,14,2.87,3.56.55,5.05,1.57,5,4.2s-1.64,4-5.21,4a41.32,41.32,0,0,1-23.7-6.84C122.24,89.55,120.81,88.54,118.86,87.21Z"/><path class="cls-1" d="M8.33,117.33C6.42,127.72,10,139.7,15.8,151.42c4.25,8.56,7.78,17.5,11.43,26.36A32.28,32.28,0,0,0,37.51,191.1c8.69,6.77,17.27,13.68,26.05,20.32,3.26,2.46,4.85,5.11,4.7,9.37-.33,9.05-.1,18.12-.1,27.18,0,1.06,0,2.13,0,3.19-.16,2.68-1.49,4.53-4.24,4.47s-4.05-2-4.07-4.65c0-7.64-.51-15.32.12-22.9.54-6.59-1.53-10.85-7-14.54-7.06-4.74-13.49-10.41-20.22-15.63a41.68,41.68,0,0,1-13.23-17C13.61,167,7.52,153.16,1.7,139.25a21.31,21.31,0,0,1-1.6-7.68C-.07,120.38,0,109.19,0,98c0-11.7,11.1-18,21.44-12.27,3.89,2.17,7,5.42,8,9.58,1.89,7.53,3.15,15.24,4.28,22.93a4.16,4.16,0,0,1-4.29,5c-2.74-.3-3.71-2.11-4-4.78a150.75,150.75,0,0,0-2.14-15.27,25.85,25.85,0,0,0-3.31-7.75c-1.58-2.64-4.28-3.6-7.37-3.22-2.81.34-4.51,1.48-4.4,4.77C8.47,102.8,8.33,108.67,8.33,117.33Z"/><path class="cls-1" d="M247.55,94.23c-5.84-3.51-10.6-2.68-12.77,3.2s-2.89,12.35-4.19,18.57a26,26,0,0,0-.22,3.19c-.21,2.53-1.69,4-4.12,4a3.9,3.9,0,0,1-4-4.12,49.93,49.93,0,0,1,.95-10.59c1.19-5.32,2.25-10.87,4.65-15.69,4.16-8.37,13.24-11.17,21.32-7.5,4.41,2,6.94,5.13,6.87,10.33-.16,12.25,0,24.51-.13,36.77a19.48,19.48,0,0,1-1.69,7.12c-5.84,13.91-11.89,27.72-17.75,41.61a41.1,41.1,0,0,1-12.9,16.65c-8.12,6.35-16.15,12.8-24.37,19a6.81,6.81,0,0,0-3,6.25c.16,8.17.06,16.34.05,24.51,0,1.25,0,2.5,0,3.73-.17,2.68-1.55,4.47-4.3,4.4-2.47-.06-3.78-1.75-4-4.19-.1-1.23-.05-2.48-.05-3.72,0-8.89.24-17.78-.1-26.65-.17-4.44,1.47-7.24,4.9-9.8,8.52-6.4,16.79-13.12,25.23-19.63a35.31,35.31,0,0,0,11.26-14.56c5.56-13.25,11.33-26.41,17-39.62a12.59,12.59,0,0,0,1.4-4.53C247.6,120,247.55,107,247.55,94.23Z"/><path class="cls-1" d="M220.64,141.33c-4.23-3.17-8.6-4-12.84-2a47.28,47.28,0,0,0-11,7.27c-6.06,5.48-11.59,11.54-17.51,17.18a14.42,14.42,0,0,1-5.76,3.39c-16.09,4.51-28.26,19.78-28.5,36.58-.22,14.57-.06,29.16-.07,43.74a31.82,31.82,0,0,1-.11,4.26c-.31,2.42-1.87,4.26-4.22,3.75-1.51-.33-2.91-2.16-3.85-3.64-.57-.9-.19-2.42-.19-3.67,0-14.22-.06-28.45,0-42.67.09-20.71,12.46-38.24,31.8-45.53a22.1,22.1,0,0,0,7-4.42c5.72-5.34,11-11.09,16.75-16.44,5.41-5.07,11.53-8.87,19.28-9.24,6.41-.31,11.8,2.06,16.59,6.08,4.33,3.64,4.47,5.57.51,9.57-7.5,7.59-15.09,15.09-22.64,22.62-4,4-8,8.08-12.11,12-2.7,2.61-5.09,2.87-7,1s-1.67-4.29,1-6.94c9.52-9.6,19.11-19.12,28.66-28.68C217.85,144.27,219.16,142.86,220.64,141.33Z"/><path class="cls-1" d="M35.25,141.27c1.35,1.44,2.52,2.75,3.75,4l27.16,27.13c1,1,2,2,3,3.08,1.57,1.9,1.74,3.94-.13,5.71s-3.87,1.5-5.75-.05c-.82-.68-1.56-1.46-2.31-2.21Q44.5,162.54,28.09,146.14c-4.72-4.73-4.63-6.54.49-10.59,8.23-6.5,17.11-7.55,26.33-2.52a57.07,57.07,0,0,1,9.84,7.22,128.77,128.77,0,0,1,9.48,9.36,55.12,55.12,0,0,0,17.45,12.52c17.84,8.28,27.1,23,27.61,42.7.38,14.56.08,29.14.08,43.72,0,.53,0,1.07,0,1.6-.18,3.67-1.75,5.78-4.32,5.51-3.06-.32-4.09-2.43-4-5.26,0-1.07,0-2.14,0-3.2q0-20,0-40c0-20.15-10.22-34-29.37-40.12a13.18,13.18,0,0,1-4.76-3.19c-5.74-5.56-11.17-11.47-17.1-16.82a48.9,48.9,0,0,0-11.32-7.7C44.08,137.26,39.51,138,35.25,141.27Z"/></g></g></svg>