<svg xmlns="http://www.w3.org/2000/svg" viewBox="0 0 256 256"><defs><style>.cls-1{fill:#24439c;}</style></defs><g id="Слой_2" data-name="Слой 2"><g id="Слой_1-2" data-name="Слой 1"><path class="cls-1" d="M130,0a8.43,8.43,0,0,1,3.22,7.36c-.18,5.8-.05,11.61-.06,17.42a14,14,0,0,1-.21,3A4.87,4.87,0,0,1,128,31.83a4.65,4.65,0,0,1-5-4.54c-.23-7.46-.27-14.93,0-22.38C123.16,3.24,125,1.64,126,0Z"/><path class="cls-1" d="M0,126a8.58,8.58,0,0,1,7.38-3.2c5.8.17,11.61,0,17.42.06a13.38,13.38,0,0,1,3,.22A4.84,4.84,0,0,1,31.83,128a4.67,4.67,0,0,1-4.55,5c-7.46.22-14.93.27-22.38,0C3.23,132.86,1.63,131,0,130Z"/><path class="cls-1" d="M256,130a8.4,8.4,0,0,1-7.36,3.22c-5.8-.17-11.61,0-17.41-.06a13.29,13.29,0,0,1-3-.21,4.9,4.9,0,0,1-4.09-4.94,4.66,4.66,0,0,1,4.55-5c7.46-.22,14.93-.28,22.37,0,1.68.07,3.28,1.89,4.91,2.91Z"/><path class="cls-1" d="M126,256a8.54,8.54,0,0,1-3.2-7.38c.17-5.8,0-11.61.08-17.41a10.48,10.48,0,0,1,.74-4.34,4.54,4.54,0,0,1,5.38-2.6,4.82,4.82,0,0,1,4.08,5c.06,7.13.24,14.27-.11,21.38-.09,1.84-1.93,3.6-3,5.39Z"/><path class="cls-1" d="M139.82,106.84h34.12c2.54,0,5.1,0,6.49,2.7s.34,4.79-1.11,7q-21.88,33.1-43.73,66.22c-5.68,8.61-11.31,17.25-17,25.87-.64,1-1.13,2.35-2,2.77a11,11,0,0,1-5.46,1.31,4,4,0,0,1-3.34-4.37c.13-3.15.51-6.3.92-9.43q3.6-27,7.24-53.94c.24-1.81.35-3.63.57-6-1.8-.13-3.38-.32-5-.33-9,0-18,0-27,0-1.17,0-2.34,0-3.5,0-2.41-.12-4.7-.58-5.73-3.17s-.08-4.51,1.42-6.48q7.53-9.93,15-19.93Q115,78,138.2,47.1c.6-.8,1.15-1.64,1.82-2.37a5.08,5.08,0,0,1,5.91-1.42,4.6,4.6,0,0,1,3.12,5.14c-.4,3.64-1,7.25-1.58,10.86q-3.58,21.16-7.21,42.33C140,103.09,140,104.57,139.82,106.84ZM135,70.54,134,70,90.51,128.07h6.11c8.17,0,16.33-.06,24.49,0,5.29.05,7.26,2.3,6.59,7.55-1,7.77-2.17,15.51-3.2,23.27-1.09,8.21-2.1,16.43-3.15,24.65l1,.43,44-66.83h-6.21c-8.33,0-16.67.06-25,0-5.93-.06-7.67-2.31-6.63-8.25.05-.33.16-.65.21-1Q131.85,89.23,135,70.54Z"/><path class="cls-1" d="M61.57,55.55c0,4.43-4.24,7.12-7.46,5.34a16.73,16.73,0,0,1-3.46-2.84C46.5,54,42.33,49.89,38.32,45.68c-2.74-2.86-2.87-5.72-.71-8s5.13-2.23,7.94.47c4.8,4.61,9.45,9.38,14.06,14.18A14.73,14.73,0,0,1,61.57,55.55Z"/><path class="cls-1" d="M200.44,61.54c-4.29.13-7.08-4.12-5.35-7.34a16.08,16.08,0,0,1,2.81-3.48c4.2-4.26,8.38-8.56,12.73-12.67,2.66-2.5,5.43-2.52,7.58-.51s2.38,5,0,7.56c-4.8,5.07-9.83,9.92-14.85,14.78A11.62,11.62,0,0,1,200.44,61.54Z"/><path class="cls-1" d="M42.12,219.85c-4.43,0-6.95-3.63-5.59-7a6.66,6.66,0,0,1,1.35-2.08c4.81-4.84,9.56-9.74,14.52-14.41,2.78-2.62,5.2-2.53,7.48-.31s2.38,4.73-.2,7.46c-4.67,5-9.52,9.77-14.41,14.52A12,12,0,0,1,42.12,219.85Z"/><path class="cls-1" d="M219.84,213.89c0,4.44-3.6,6.93-7,5.58a6.59,6.59,0,0,1-2.09-1.35c-4.83-4.8-9.73-9.56-14.41-14.52-2.61-2.77-2.53-5.2-.3-7.47s4.72-2.4,7.46.19c5,4.68,9.75,9.54,14.5,14.43A12.15,12.15,0,0,1,219.84,213.89Z"/></g></g></svg>