<svg xmlns="http://www.w3.org/2000/svg" viewBox="0 0 192.07 256"><defs><style>.cls-1{fill:#24439c;}</style></defs><g id="Слой_2" data-name="Слой 2"><g id="Слой_1-2" data-name="Слой 1"><path class="cls-1" d="M103,256c-.86-1.69-3.08-3.4-1.31-5.25a7.89,7.89,0,0,1,5.18-2c13.65-.16,27.31-.09,41-.09h6.55v-5.91q0-27.23,0-54.46c0-1.33-.05-2.67,0-4,.18-2.39,1.07-4.34,3.88-4.2,2.45.12,3.39,1.89,3.46,4.1.09,2.83,0,5.67.05,8.5V200H184.5c.07-7.88,1-15.69-2-23.18-3.16-7.94-8.57-13.77-16.7-16.86-5.26-2-10.49-4-16-6.16a49,49,0,0,1-14.64,19.65,76.68,76.68,0,0,1-10.7,7.28c-7.19,4-12.08,1-12.18-7.16-.06-4.26,0-8.53,0-12.79l-1-.45c-2.43,2.42-4.84,4.85-7.28,7.24-5.6,5.48-10.37,5.48-16,0-2.44-2.4-4.86-4.83-7.28-7.25l-1,.42V170c0,1.66.08,3.34,0,5-.43,6.3-5.22,9.29-10.8,6.43-10.76-5.51-19.64-13.09-25.07-24.18-.43-.89-.91-1.77-1.38-2.64-.07-.13-.25-.2-.93-.72-6.39,2.63-13.45,4.8-19.74,8.32A26.69,26.69,0,0,0,7.85,184c-.45,5.24-.08,10.55-.08,16.07H30.21c0-4.51,0-8.94,0-13.37,0-4.7,1-6.49,3.49-6.65,2.76-.17,3.92,1.74,3.93,6.73q0,28,0,56v5.91h44a14.41,14.41,0,0,1,3.48.05c1.82.47,4,.81,5.19,2,1.78,1.85-.44,3.56-1.29,5.25H7c-5.5-3.4-7.17-8.28-7-14.7.36-17.31.1-34.64.13-52,0-17.87,8.65-30.45,25.2-36.88L40,146.75c0-2.51-.12-5,0-7.45.72-12.62,1.65-25.24,2.23-37.87.48-10.3.56-20.62.84-30.93.25-8.81-.36-17.76,1-26.4C47.46,21.94,64.21,5.37,86.32,1A18.6,18.6,0,0,0,89,0h14c2.19.65,4.38,1.34,6.59,1.93A52.94,52.94,0,0,1,149,52.53c0,3.5.06,7,0,10.49-.08,4.17.11,8.15,2.07,12.08a12.57,12.57,0,0,1-.23,11.61c-2.12,4-1.91,8-1.43,12.11q.69,6,1.37,11.91c0,.33.07.66.08,1,.13,3.24-1,5.09-3.3,5.19-2.85.12-3.69-1.86-4-4.17-.52-4.3-.93-8.6-1.42-12.9-.1-1-.32-1.91-.55-3.21l-6.49,1.49c-.82,2.86-1.44,5.62-2.4,8.25A40.89,40.89,0,0,1,122.22,122a7.31,7.31,0,0,0-2.39,4.51c-.16,15.49-.07,31,0,46.47a5.51,5.51,0,0,0,.51,1.31,27.36,27.36,0,0,0,3.39-1.53c11.06-6.9,19.26-15.9,20.91-29.43.44-3.61.16-7.31.25-11,.09-3.28,1.38-5.06,3.55-5s3.52,1.77,3.58,5c.09,4.65,0,9.3,0,14.31l15.66,6.19c15.36,6.08,24.18,18.88,24.25,35.5.08,17.66-.22,35.32.14,53,.14,6.42-1.53,11.3-7,14.7ZM71.88,174.11a8.8,8.8,0,0,0,.41-1.82c0-15.16,0-30.32.08-45.48,0-2.35-1.19-3.6-2.72-5C63.25,116.07,59,109,57.71,100.46c-.77-5.07-.66-10.28-.7-15.43,0-7,2.37-9.39,9.45-10.09,16.68-1.65,30.71-8.35,41.15-21.78,5.76-7.39,8-7.21,12.67,1,2.72,4.79,6.42,8.61,12,9.75a74.07,74.07,0,0,0,9.09.76,11.39,11.39,0,0,0,.39-2.31c-.13-5,0-10-.56-15a45.5,45.5,0,0,0-45.12-40C73.2,7.3,53.32,24.32,51,47.21c-1.22,11.88-.49,23.95-.77,35.94-.17,7.15-.54,14.3-.94,21.44-.66,11.64-1.88,23.26-2,34.9C47,154.26,57.91,169.05,71.88,174.11ZM113,58.3c-12.08,15.14-28.7,22.76-48.73,24.19,0,4.56-.31,8.7,0,12.78,1.44,16.5,14.08,28.42,30.67,29.16,16,.73,30.1-10.28,32.24-26.55,1.18-9,.21-18.21.21-26.51ZM29.91,208H7.44v7.55q0,14,0,27.92c0,2.42,0,5,3.34,5.06,6.27.13,12.56,0,19.12,0Zm132.14,40.65c6.18,0,11.8.07,17.43,0,4.47-.08,5.1-.7,5.12-5.35.07-10.63,0-21.27,0-31.91a21.33,21.33,0,0,0-.5-3.18h-22ZM79.79,128.53c0,2.27,0,3.89,0,5.5.1,5-1.05,10.46.68,14.78,1.67,4.14,6.3,7.1,9.69,10.52,6.4,6.45,5.37,6.43,11.76,0,3.39-3.41,8-6.39,9.68-10.52,1.73-4.33.59-9.81.63-14.79,0-1.66-.22-3.32-.36-5.36C100.89,133,90.65,132.66,79.79,128.53Zm55.59-38.61c6.08-.76,9.79-4.71,9.52-9.75-.25-4.79-3.7-7.9-9.52-8.34Z"/><path class="cls-1" d="M95.69,239.59c-.45,0-1.67.19-2.35-.31-1.2-.88-2.7-2.09-2.94-3.38-.39-2,1.21-3.25,3.21-3.62a13.29,13.29,0,0,1,2.45-.11c3.84,0,5.85,1.36,5.72,3.85C101.67,238.32,99.79,239.53,95.69,239.59Z"/><path class="cls-1" d="M96,222.48c-1.16-.15-2.45.07-3.06-.48-1.1-1-2.59-2.49-2.49-3.67.24-2.93,2.73-3.28,5.25-3.25s5.4-.12,5.86,3.12c.17,1.15-1.23,2.81-2.34,3.74C98.48,222.58,97,222.35,96,222.48Z"/><path class="cls-1" d="M97.08,198.07a3.06,3.06,0,0,1,2,.24c1.1.81,2.65,2.22,2.53,3.19a5.23,5.23,0,0,1-2.79,3.43c-1.4.61-3.26.3-4.92.22-2.11-.09-3.56-1.27-3.58-3.38,0-2.34,1.5-3.58,3.84-3.7C94.81,198,95.48,198.07,97.08,198.07Z"/><path class="cls-1" d="M95.89,188.18c-1.1-.07-2.2.18-2.7-.25-1.13-1-2.79-2.33-2.78-3.51,0-2.94,2.43-3.45,5-3.45,4.15,0,6.42.91,6.2,3.23-.13,1.31-1.43,2.77-2.59,3.64C98.25,188.43,96.79,188.11,95.89,188.18Z"/></g></g></svg>