<svg xmlns="http://www.w3.org/2000/svg" viewBox="0 0 256 255.93"><defs><style>.cls-1{fill:#24439c;}</style></defs><g id="Слой_2" data-name="Слой 2"><g id="Слой_1-2" data-name="Слой 1"><path class="cls-1" d="M42.19,186.48l6.34,7L29.05,213.34l13.73,13.12c1.31-1.22,2.89-2.6,4.37-4.07,12.66-12.63,25.36-25.22,37.92-37.94a79.33,79.33,0,0,1,26.35-18c.37-.15.72-.34,1.08-.5,35.9-16,29.38-11.28,58.12-40Q203.08,93.47,235.5,61c1.93-1.94,3.72-4,5.39-5.82L200.63,15c-1.39,1.27-3.19,2.76-4.83,4.4q-41.31,41.3-82.61,82.61a70.5,70.5,0,0,0-15.53,23c-3.13,7.51-6.27,15-9.63,22.42a71.35,71.35,0,0,1-19,25.23l-5.72-6.2c0-.17,0-.67.27-.89,9.44-8.93,15.71-19.84,20.24-31.9,1.75-4.64,3.85-9.14,5.82-13.69a76.8,76.8,0,0,1,16.3-24c28.1-28.1,56.1-56.3,84.32-84.27,21.29-21.1,55.94-12.67,64,15.51,4.13,14.4.58,27.15-9.82,37.82-10.67,11-21.6,21.67-32.41,32.49-16.58,16.58-33.21,33.1-49.71,49.76a89,89,0,0,1-27.84,19c-36.35,16-29.76,11.58-57.72,39.49q-21.73,21.69-43.41,43.41c-5.29,5.3-11.53,7.84-18.94,6.05C.15,251.89-4.82,234.74,5.41,223.77,12.05,216.66,19.15,210,26,203.06,31.3,197.7,36.54,192.27,42.19,186.48ZM245.52,43.88c2.88-8.69-.06-19.53-7.83-26.69-7.46-6.87-16.15-9.63-25.86-7.11ZM35.49,234.6,21.41,220c-3,3.27-6.17,6.57-9.19,10-3.92,4.44-3.83,10.16.07,13.88,3.74,3.57,9.2,3.58,13.45-.18C29.17,240.72,32.41,237.5,35.49,234.6Z"/><path class="cls-1" d="M191.82,88.62c-1.39,2.24-2.2,4.32-3.64,5.77q-22.6,22.83-45.4,45.45c-4.16,4.12-7.51,4-11.84-.22q-7.47-7.23-14.72-14.72c-4.16-4.31-4.28-7.67-.16-11.83q22.62-22.8,45.43-45.41c4-4,7.73-3.88,11.89.13,5,4.82,9.93,9.71,14.68,14.75C189.59,84.17,190.48,86.4,191.82,88.62Zm-55.75,42.29,42.6-42.63c-3.38-3.85-7.37-8.37-10.68-12.13-14.78,14.6-29.23,28.88-43.8,43.26Z"/><path class="cls-1" d="M201.16,36.18A18.57,18.57,0,0,1,220,55a19.22,19.22,0,0,1-19.58,18.91,18.86,18.86,0,0,1,.73-37.71Zm2.05,9.41c-8.06,0-11.93,3.55-11.64,9.68.25,5.55,4.75,9.35,10.47,8.87s8.69-4.47,7.84-11.1l-5.07,4.33c-2.3-2.11-4.43-4.06-6.55-6Z"/><path class="cls-1" d="M170.3,92l-9.77,9.26-6-6.39,10-9Z"/></g></g></svg>