<svg xmlns="http://www.w3.org/2000/svg" viewBox="0 0 256 255.95"><defs><style>.cls-1{fill:#24439c;}</style></defs><g id="Слой_2" data-name="Слой 2"><g id="Слой_1-2" data-name="Слой 1"><path class="cls-1" d="M243.44,98.64c4.4,13.48,4.26,14.24-3,19.32,3.08,7.81,1.62,11.19-7.6,16.92,0,1.86,0,4,0,6.06-.29,11.12-7.09,18.57-18.28,18.9-7.43.22-14.9-.75-22.35-1.3-5.67-.42-11.33-1.06-17-1.54-8.94-.76-16.75,2.88-24.3,6.85-19.57,10.3-30.29,27.33-35.76,48.17A136.72,136.72,0,0,0,111,245.83c0,1.6,0,3.21,0,4.81a4.72,4.72,0,0,1-3.85,5.06,4.86,4.86,0,0,1-6.09-3,104.54,104.54,0,0,1-4.83-13c-7.58-28.37-5-56.08,6.19-83.05,11.22-27.15,29.26-49.38,50.51-69.26C166.11,75,179.8,63,192.14,49.8c13-13.88,24.55-29,36.73-43.61.57-.68,1-1.45,1.57-2.16,1.64-2.24,3.75-3.29,6.48-2.22s3.66,3.26,3.23,6c-.76,4.74-1.68,9.46-2.4,14.21-1.31,8.61-2.38,17.26-3.82,25.86-1.67,10.06,1.93,17.76,9.95,23.64,2.15,1.57,4.39,3,6.65,4.44,4,2.53,5.57,6.31,5.46,10.88-.07,3.23-1.21,5.78-4.43,7.26C248.84,95.37,246.3,97,243.44,98.64ZM103.27,214.81c1.79-5.53,3.36-11.15,5.41-16.59,9.29-24.65,26.2-41.52,51.52-49.4a52.69,52.69,0,0,1,14.63-2.16c5.48-.09,11,.94,16.47,1.36,7.27.57,14.54,1.35,21.82,1.43,6.57.08,9.71-3.64,9.44-10.19a26.18,26.18,0,0,0-.69-4.74c-1.36-6-.77-7.09,4.84-9a28.58,28.58,0,0,0,3.55-1.76c-3.86-8.84-3.13-11.47,4.66-17.17-.78-2-1.61-4.16-2.39-6.3-1.92-5.29-1.46-6.67,3.4-9.55,3-1.77,6-3.41,9.55-5.37-2.54-1.73-4.44-3-6.29-4.3-11.54-8.32-17.94-19-15.69-33.78.74-4.92,1.33-9.87,1.94-14.81.13-1.07,0-2.17,0-4.15-1.79,1.95-2.9,3.06-3.9,4.27a476.48,476.48,0,0,1-56.13,57.6C144.05,108.79,126,130.13,114,156.14,105.47,174.72,101.38,194.17,103.27,214.81Z"/><path class="cls-1" d="M57.65,207.69c0-30.82,10.62-58.05,27.93-83,12.45-18,27.89-33.09,44.26-47.42a436.06,436.06,0,0,0,61.26-66.6c1.71-2.27,3.31-4.63,5.12-6.82,2.28-2.74,5-3.15,7.47-1.34s3.09,4.48.74,7.42c-11.3,14.15-22.5,28.42-34.29,42.17C156.69,67.74,141,81.17,125.73,95c-20.63,18.7-37.64,40.2-48.32,66.21C67.52,185.3,65,210,71.47,235.41a109,109,0,0,0,4,11.58c1.75,4.59,1.19,7.19-2.11,8.51s-5.69-.2-7.61-4.61c-5-11.57-7.26-23.76-8-36.27C57.53,212.32,57.65,210,57.65,207.69Z"/><path class="cls-1" d="M73.78,76.86c4.73.09,7.19,4.41,5.08,7.71a23.2,23.2,0,0,1-4.44,4.53C56.19,105,40.17,122.73,28.36,144,12.14,173.19,6.61,203.91,15.9,236.56c1.06,3.75,2.71,7.33,4.14,11,1.51,3.86.92,6.35-1.9,7.79s-5.86.28-7.64-3.56c-6.15-13.27-9-27.33-9.45-41.87-1-32,9.64-60.38,27.7-86.31C40.31,107,54.3,92.6,69.63,79.5A28.89,28.89,0,0,1,73.78,76.86Z"/><path class="cls-1" d="M177,196.23c6.79-4.77,13.61-6,20.79-2,9.72,5.39,12.53,17.87,5.49,26.49-4.58,5.62-10.06,10.51-15.16,15.69-2.37,2.41-4.73,4.83-7.25,7.07-3,2.68-5,2.77-7.88,0-7.25-7.05-14.58-14.05-21.42-21.5a17.64,17.64,0,0,1-.35-23.82c5.7-6.72,15.05-8.12,23.21-3.46C175.23,195.08,176,195.57,177,196.23Zm-.11,36c6.15-6,12.28-11.63,18-17.65,2.72-2.85,2.07-7.61-.65-10.17a7.9,7.9,0,0,0-9.85-.44c-1,.73-1.82,1.7-2.75,2.52-3.95,3.49-5.6,3.48-9.58-.11-.66-.59-1.25-1.27-1.94-1.83-3.48-2.86-7.68-2.82-10.59.08a7.18,7.18,0,0,0,0,10.51C165.08,220.84,170.92,226.31,176.93,232.18Z"/><path class="cls-1" d="M81.8,4.13C87,.81,92.34-1,98.52.65c12.51,3.44,17.79,18.81,9.26,28.57-6.89,7.88-14.58,15.06-22.07,22.4-2.53,2.48-5.58,2.38-8.11-.11-7.34-7.22-14.78-14.38-21.76-22-5.7-6.19-5.58-16.18-.42-22.68a17.89,17.89,0,0,1,22.1-5C79,2.57,80.33,3.35,81.8,4.13Zm.11,37.14c4.49-4.74,8.63-9.08,12.74-13.45,1.93-2.05,4.12-3.95,5.65-6.28,2-3.08,1.19-6.7-1.49-9.15a7.15,7.15,0,0,0-9.28-.57,25.06,25.06,0,0,0-2.41,2.09c-4.63,4.17-6.24,4.18-10.76,0-.52-.48-1-1-1.57-1.43-3.7-2.92-7.46-2.84-10.5.23s-3.36,6.92-.1,10.45C69.7,29.15,75.55,34.81,81.91,41.27Z"/><path class="cls-1" d="M30.25,200.51c.23-18,2.7-35.51,10.64-51.84A85,85,0,0,1,48.75,136c2.22-3,5.5-3.27,7.89-1.19,2.18,1.9,2.43,4.75.22,7.65-10.42,13.72-14.11,29.66-15.37,46.36-1.5,19.67.9,39,5.49,58.15.16.69.43,1.36.54,2.06.57,3.45-.82,5.91-3.71,6.66s-5.61-.74-6.34-4.13c-1.95-9-3.94-18.07-5.25-27.2C31.09,216.5,30.87,208.48,30.25,200.51Z"/><path class="cls-1" d="M101.34,85.64c-1.64-1.21-3.46-2.06-4.53-3.48-1.46-1.93-.89-4.08.87-5.75,3.35-3.18,6.76-6.29,10.12-9.47,20-18.88,38.09-39.29,52.31-62.95a12.42,12.42,0,0,1,1.17-1.78c1.83-2.18,4.06-2.9,6.6-1.39s3.29,3.77,2.1,6.4a56.79,56.79,0,0,1-3.85,7c-16.49,25.82-37.13,48-60,68.28A41.4,41.4,0,0,1,101.34,85.64Z"/><path class="cls-1" d="M15.72,42.64a15.92,15.92,0,1,1,0,31.84,15.92,15.92,0,0,1,0-31.84Zm5.46,16a5.33,5.33,0,0,0-5.32-5.38,5.48,5.48,0,0,0-5.41,5.34,5.54,5.54,0,0,0,5.37,5.39A5.4,5.4,0,0,0,21.18,58.59Z"/><path class="cls-1" d="M234.81,224a15.9,15.9,0,1,1,15.93-16A16,16,0,0,1,234.81,224Zm5.42-15.7a5.46,5.46,0,0,0-5.18-5.55,5.25,5.25,0,0,0-5.52,5.18,5.33,5.33,0,0,0,5.14,5.55A5.43,5.43,0,0,0,240.23,208.29Z"/></g></g></svg>