<svg xmlns="http://www.w3.org/2000/svg" viewBox="0 0 256 230.82"><defs><style>.cls-1{fill:#24439c;}</style></defs><g id="Слой_2" data-name="Слой 2"><g id="Слой_1-2" data-name="Слой 1"><path class="cls-1" d="M0,91.29c2-2.74,4.79-3.12,8-3.11,16,.09,32-.07,48,.12,3.71,0,5.55-1.13,7-4.58C74.31,57.8,85.87,32,97.36,6.12c.54-1.22.88-2.72,1.81-3.51,1.4-1.19,3.22-2.59,4.88-2.61,2.3,0,3.74,1.91,4,4.37.59,5.63,1.25,11.25,1.75,16.89q3.88,43.8,7.71,87.6,3.28,37.58,6.58,75.15c.18,2.12.51,4.22.77,6.34l1.05.08q2.05-9.3,4.11-18.62,11.07-50.49,22.13-101c.68-3.09,1.1-6.51,5.16-7,2.73-.35,4.47,1.78,5.7,7,3,13,6,26,9,38.93.36,1.61.8,3.2,1.53,6,1.15-2.48,1.87-3.88,2.46-5.33,3.59-9,7.28-17.88,10.66-26.92,1.45-3.89,3.82-5.32,7.9-5.29,18,.14,36,.11,54,0,3,0,5.54.67,7.51,3v4c-2.3,2.2-5.07,2.76-8.2,2.74-15.65-.09-31.31,0-47,0h-5.57c-2.58,6.39-5,12.38-7.42,18.38-3.4,8.49-6.77,17-10.18,25.5a15.87,15.87,0,0,1-1.49,3.14c-2.08,3-6,3-7.82-.16a14.35,14.35,0,0,1-1.43-4.21c-2.48-10.7-4.9-21.41-7.36-32.12a13,13,0,0,0-2.26-5.29c-.42,1.44-.93,2.87-1.25,4.34Q142.17,161,128.3,224.37c-1,4.77-2.75,6.68-5.56,6.43s-4.28-2.49-4.7-7.19q-4.83-53.73-9.65-107.46c-2.52-28.36-4.94-56.73-7.42-85.09a10.78,10.78,0,0,0-1.64-5.18c-.67,1.33-1.4,2.64-2,4C88.13,50.56,78.84,71.2,69.86,92c-1.89,4.36-4.51,5.92-9.12,5.87-17.48-.17-35-.11-52.46,0-3.09,0-5.88-.48-8.28-2.52Z"/></g></g></svg>