<svg xmlns="http://www.w3.org/2000/svg" viewBox="0 0 256 192.16"><defs><style>.cls-1{fill:#24439c;}</style></defs><g id="Слой_2" data-name="Слой 2"><g id="Слой_1-2" data-name="Слой 1"><path class="cls-1" d="M256,50.29c-3.55,9.36-11.2,15.5-17.76,22.47-3.52,3.74-7.34,7.19-11.42,11.16l-5.17-5.52c3.3-3.33,6.44-6.47,9.54-9.64,4.19-4.29,8.46-8.5,12.49-12.93,8.17-9,4.61-20.34-7.19-23.51-10.84-2.9-21.77-4.67-33.07-4.22-8.32.33-16.67.32-25,0-5-.21-8.66,1.87-11.82,5.28a23.56,23.56,0,0,0-6.68,16.74c0,1.82,0,3.63,0,5.77h-7.46c-1.53-12.45,2.31-22.83,12.06-31.35C155,18.33,144.8,20.81,134,20.06c1.37,1.89,2.1,3.07,3,4.11A44.19,44.19,0,0,1,147.71,52.6c.33,11.49.38,23,0,34.49-.15,4.57-1.74,9.11-2.72,13.65-.25,1.13-.83,2.2-1,3.33-.29,2.15.87,3.87,2.85,4,1.3.07,3.44-1,3.85-2.13a23.23,23.23,0,0,0,1.35-7.78c.14-9.83.05-19.66.07-29.49,0-1.15.13-2.3.23-3.85h7.27c.09,1.25.28,2.68.28,4.12,0,8.67.09,17.33,0,26a5.5,5.5,0,0,0,2.82,5.29c7.89,5.12,16.17,5.61,24.81,2.4,7.6-2.82,14-7.7,20.3-12.57,1.82-1.4,3.61-2.84,5.56-4.38,1.7,1.9,3.12,3.49,4.76,5.34a16.75,16.75,0,0,1-2.36,2.54c-6.51,4.6-12.89,9.43-19.66,13.63a36.11,36.11,0,0,1-36.9.24c-2.13,3.48-4,7.34-8.48,8.48A12.52,12.52,0,0,1,140,113.42c-28.52,25.5-58.59,48.63-87.57,73.05-5.6,4.72-11.67,7.11-18.9,4.8-6.81-2.16-10.57-7.12-12.21-13.94Q15.19,152.08,9,126.86q-3.68-15-7.46-30.06A23.1,23.1,0,0,0,0,93.29v-27l2-6.53,6.93,1.52c-.36,3.89-.7,7.5-1,11.12-1.08,12.46,1.39,24.46,4.46,36.45,5.36,21,10.38,42,15.56,63a45.3,45.3,0,0,0,1.81,6.22c2.41,6,9,8.25,14.41,4.66,4.27-2.85,8.2-6.25,12.18-9.52Q90.46,145.14,124.51,117A41.12,41.12,0,0,0,140,84.79c.17-9.49.11-19,0-28.48-.23-20.15-12.09-37.15-31.19-43.69-17.6-6-35.76-6.34-53.69-1.94C40.79,14.2,29.36,22.74,20.71,34.83c-.67.94-1.38,1.85-2.38,3.18l-6.47-3.94C22.64,17.45,37.12,6.65,56,2.46A106,106,0,0,1,109.84,4.7c4.41,1.31,8.41,4,12.68,5.78A19.09,19.09,0,0,0,129,12.32c6.65.24,13.32.07,20,.08a39.91,39.91,0,0,1,21.32,6.1,12.25,12.25,0,0,0,6,1.78c11.83.16,23.65.15,35.48.06,10.66-.08,20.76,2.77,30.76,5.91,5.7,1.78,9.37,6.11,11.77,11.51.53,1.19,1.13,2.35,1.7,3.53Z"/><path class="cls-1" d="M88.55,16.69c16.76-1,34.38,11.75,38.64,26.29l-6.69,2.47c-6.39-13.64-17-20.81-31.95-21.46Z"/><path class="cls-1" d="M3.91,51,7,42.86l7,3.19-2.89,7.13Z"/></g></g></svg>