<svg width="180" height="41" viewBox="0 0 180 41" fill="none" xmlns="http://www.w3.org/2000/svg">
<mask id="mask0_1102_8418" style="mask-type:luminance" maskUnits="userSpaceOnUse" x="0" y="0" width="19" height="41">
<path d="M2.12455 22.6677H16.6333V21.5963C16.4214 21.6528 16.2156 21.7093 16.0058 21.7618C15.8 21.8183 15.5881 21.8687 15.3783 21.9151C14.9566 22.014 14.5329 22.0907 14.1072 22.1532C13.8651 22.1835 13.623 22.2097 13.3809 22.2238C12.8522 22.2662 12.3216 22.2601 11.8011 22.2037C11.7042 22.1936 11.6013 22.1835 11.5025 22.1673C11.107 22.1108 10.7156 22.018 10.3363 21.8889C9.5837 21.6367 8.89569 21.2412 8.21575 20.8196C7.94943 20.6501 7.68108 20.4806 7.4087 20.3111C7.27352 20.2223 7.14036 20.1396 7.00114 20.0589C6.89421 19.9903 6.78122 19.9298 6.67227 19.8632C5.71592 19.3205 4.67079 18.8766 3.58531 18.8766C3.53689 18.8766 3.48847 18.8786 3.44206 18.8806C2.9881 18.8947 2.55229 18.9976 2.12859 19.1691H2.12455V22.6677ZM18.8869 30.8007V23.4949H0V30.8007C0 36.0143 4.23095 40.2432 9.44246 40.2432C14.66 40.2432 18.8869 36.0143 18.8869 30.8007ZM0 10.2412V23.4949H18.8869V10.2412C18.8869 7.63239 17.8317 5.27178 16.1228 3.56285C14.4159 1.84989 12.0533 0.794678 9.4465 0.794678C4.22893 0.794678 0 5.02562 0 10.2412ZM2.12859 19.1691C2.55229 18.9976 2.9881 18.8947 3.44206 18.8806C4.57798 18.8383 5.67355 19.2963 6.67227 19.8632C7.83442 19.3427 9.64019 19.0077 11.6618 19.0077C13.6754 19.0077 15.4711 19.3386 16.6333 19.8572V22.6677H2.12859V19.1691ZM13.3809 22.2238C12.8522 22.2662 12.3216 22.2601 11.8011 22.2037C12.3277 22.2662 12.8522 22.2662 13.3809 22.2238Z" fill="white"/>
</mask>
<g mask="url(#mask0_1102_8418)">
<path fill-rule="evenodd" clip-rule="evenodd" d="M8.10684 45.7188L7.98376 45.5695L33.6116 24.1646L33.7347 24.3119L8.10684 45.7188Z" fill="#04B64D"/>
<path fill-rule="evenodd" clip-rule="evenodd" d="M8.02819 45.6261L7.89099 45.4607L33.5208 24.0537L33.658 24.2192L8.02819 45.6261Z" fill="#04B64D"/>
<path fill-rule="evenodd" clip-rule="evenodd" d="M7.93737 45.5151L7.80017 45.3516L33.428 23.9447L33.5652 24.1081L7.93737 45.5151Z" fill="#05B64D"/>
<path fill-rule="evenodd" clip-rule="evenodd" d="M7.84649 45.406L7.70929 45.2426L33.3371 23.8356L33.4743 23.999L7.84649 45.406Z" fill="#05B64C"/>
<path fill-rule="evenodd" clip-rule="evenodd" d="M7.75372 45.2971L7.61652 45.1317L33.2463 23.7267L33.3835 23.8902L7.75372 45.2971Z" fill="#06B64C"/>
<path fill-rule="evenodd" clip-rule="evenodd" d="M7.66295 45.1881L7.52576 45.0226L33.1536 23.6157L33.2908 23.7811L7.66295 45.1881Z" fill="#06B64C"/>
<path fill-rule="evenodd" clip-rule="evenodd" d="M7.57226 45.0774L7.43506 44.914L33.0629 23.507L33.2001 23.6725L7.57226 45.0774Z" fill="#07B64C"/>
<path fill-rule="evenodd" clip-rule="evenodd" d="M7.47924 44.9683L7.34204 44.8049L32.9719 23.3979L33.1091 23.5614L7.47924 44.9683Z" fill="#08B64C"/>
<path fill-rule="evenodd" clip-rule="evenodd" d="M7.3886 44.8593L7.2514 44.6938L32.8812 23.2889L33.0164 23.4523L7.3886 44.8593Z" fill="#08B64B"/>
<path fill-rule="evenodd" clip-rule="evenodd" d="M7.29778 44.7502L7.16058 44.5848L32.7884 23.1778L32.9256 23.3433L7.29778 44.7502Z" fill="#09B74B"/>
<path fill-rule="evenodd" clip-rule="evenodd" d="M7.20501 44.6395L7.06781 44.4761L32.6976 23.0692L32.8348 23.2326L7.20501 44.6395Z" fill="#0AB74B"/>
<path fill-rule="evenodd" clip-rule="evenodd" d="M7.11419 44.5307L6.97699 44.3672L32.6068 22.9603L32.744 23.1237L7.11419 44.5307Z" fill="#0AB74B"/>
<path fill-rule="evenodd" clip-rule="evenodd" d="M7.02331 44.4214L6.88611 44.256L32.5139 22.851L32.6511 23.0145L7.02331 44.4214Z" fill="#0BB74B"/>
<path fill-rule="evenodd" clip-rule="evenodd" d="M6.93053 44.313L6.79333 44.1475L32.4232 22.7406L32.5604 22.906L6.93053 44.313Z" fill="#0CB74A"/>
<path fill-rule="evenodd" clip-rule="evenodd" d="M6.83978 44.2013L6.70258 44.0379L32.3324 22.6309L32.4696 22.7943L6.83978 44.2013Z" fill="#0DB74A"/>
<path fill-rule="evenodd" clip-rule="evenodd" d="M6.74907 44.0924L6.61188 43.929L32.2397 22.522L32.3769 22.6855L6.74907 44.0924Z" fill="#0EB74A"/>
<path fill-rule="evenodd" clip-rule="evenodd" d="M6.65808 43.984L6.51886 43.8185L32.1487 22.4136L32.2859 22.577L6.65808 43.984Z" fill="#0EB84A"/>
<path fill-rule="evenodd" clip-rule="evenodd" d="M6.56542 43.8747L6.42822 43.7093L32.0581 22.3023L32.1953 22.4678L6.56542 43.8747Z" fill="#0FB849"/>
<path fill-rule="evenodd" clip-rule="evenodd" d="M6.4746 43.764L6.3374 43.6006L31.9652 22.1936L32.1024 22.3571L6.4746 43.764Z" fill="#10B849"/>
<path fill-rule="evenodd" clip-rule="evenodd" d="M6.38372 43.655L6.24652 43.4915L31.8743 22.0846L32.0115 22.248L6.38372 43.655Z" fill="#11B849"/>
<path fill-rule="evenodd" clip-rule="evenodd" d="M6.29095 43.5459L6.15375 43.3805L31.7836 21.9755L31.9208 22.139L6.29095 43.5459Z" fill="#12B849"/>
<path fill-rule="evenodd" clip-rule="evenodd" d="M6.20012 43.4367L6.06293 43.2712L31.6907 21.8643L31.8279 22.0297L6.20012 43.4367Z" fill="#13B848"/>
<path fill-rule="evenodd" clip-rule="evenodd" d="M6.10936 43.3262L5.97217 43.1627L31.6 21.7558L31.7372 21.9192L6.10936 43.3262Z" fill="#14B948"/>
<path fill-rule="evenodd" clip-rule="evenodd" d="M6.01659 43.2169L5.87939 43.0535L31.5092 21.6465L31.6464 21.81L6.01659 43.2169Z" fill="#15B948"/>
<path fill-rule="evenodd" clip-rule="evenodd" d="M5.92571 43.1083L5.78851 42.9428L31.4183 21.5379L31.5535 21.7013L5.92571 43.1083Z" fill="#16B947"/>
<path fill-rule="evenodd" clip-rule="evenodd" d="M5.83501 42.999L5.69781 42.8336L31.3256 21.4266L31.4628 21.5921L5.83501 42.999Z" fill="#17B947"/>
<path fill-rule="evenodd" clip-rule="evenodd" d="M5.74224 42.8881L5.60504 42.7247L31.2349 21.3177L31.3721 21.4832L5.74224 42.8881Z" fill="#18B947"/>
<path fill-rule="evenodd" clip-rule="evenodd" d="M5.65142 42.7791L5.51422 42.6156L31.1441 21.2087L31.2813 21.3721L5.65142 42.7791Z" fill="#19B946"/>
<path fill-rule="evenodd" clip-rule="evenodd" d="M5.56054 42.6702L5.42334 42.5048L31.0512 21.0998L31.1884 21.2632L5.56054 42.6702Z" fill="#1ABA46"/>
<path fill-rule="evenodd" clip-rule="evenodd" d="M5.46777 42.5613L5.33057 42.3959L30.9604 20.989L31.0976 21.1544L5.46777 42.5613Z" fill="#1BBA46"/>
<path fill-rule="evenodd" clip-rule="evenodd" d="M5.37701 42.4507L5.23981 42.2873L30.8696 20.8803L31.0068 21.0437L5.37701 42.4507Z" fill="#1CBA45"/>
<path fill-rule="evenodd" clip-rule="evenodd" d="M5.28618 42.3416L5.14899 42.1782L30.7768 20.7712L30.914 20.9347L5.28618 42.3416Z" fill="#1DBA45"/>
<path fill-rule="evenodd" clip-rule="evenodd" d="M5.19543 42.2323L5.05621 42.0669L30.686 20.662L30.8232 20.8254L5.19543 42.2323Z" fill="#1EBA45"/>
<path fill-rule="evenodd" clip-rule="evenodd" d="M5.10253 42.1235L4.96533 41.9581L30.5952 20.5511L30.7324 20.7165L5.10253 42.1235Z" fill="#20BB44"/>
<path fill-rule="evenodd" clip-rule="evenodd" d="M5.01183 42.0124L4.87463 41.849L30.5024 20.442L30.6397 20.6075L5.01183 42.0124Z" fill="#21BB44"/>
<path fill-rule="evenodd" clip-rule="evenodd" d="M4.92107 41.9034L4.78387 41.7399L30.4117 20.333L30.5489 20.4964L4.92107 41.9034Z" fill="#22BB44"/>
<path fill-rule="evenodd" clip-rule="evenodd" d="M4.82824 41.7945L4.69104 41.6291L30.3209 20.2241L30.4581 20.3875L4.82824 41.7945Z" fill="#23BB43"/>
<path fill-rule="evenodd" clip-rule="evenodd" d="M4.73748 41.6854L4.60028 41.52L30.2281 20.113L30.3653 20.2785L4.73748 41.6854Z" fill="#24BB43"/>
<path fill-rule="evenodd" clip-rule="evenodd" d="M4.6466 41.5746L4.5094 41.4111L30.1372 20.0042L30.2744 20.1696L4.6466 41.5746Z" fill="#26BC43"/>
<path fill-rule="evenodd" clip-rule="evenodd" d="M4.55383 41.4657L4.41663 41.3023L30.0465 19.8953L30.1837 20.0587L4.55383 41.4657Z" fill="#27BC42"/>
<path fill-rule="evenodd" clip-rule="evenodd" d="M4.463 41.3568L4.32581 41.1934L29.9556 19.7865L30.0928 19.9499L4.463 41.3568Z" fill="#28BC42"/>
<path fill-rule="evenodd" clip-rule="evenodd" d="M4.37212 41.248L4.23492 41.0825L29.8627 19.6756L29.9999 19.841L4.37212 41.248Z" fill="#29BC41"/>
<path fill-rule="evenodd" clip-rule="evenodd" d="M4.27947 41.1367L4.14227 40.9733L29.7721 19.5663L29.9093 19.7298L4.27947 41.1367Z" fill="#2ABD41"/>
<path fill-rule="evenodd" clip-rule="evenodd" d="M4.18853 41.0282L4.05133 40.8648L29.6812 19.4579L29.8184 19.6213L4.18853 41.0282Z" fill="#2CBD41"/>
<path fill-rule="evenodd" clip-rule="evenodd" d="M4.09789 40.9186L3.96069 40.7531L29.5885 19.3482L29.7257 19.5116L4.09789 40.9186Z" fill="#2DBD40"/>
<path fill-rule="evenodd" clip-rule="evenodd" d="M4.00499 40.8099L3.86981 40.6445L29.4976 19.2375L29.6348 19.403L4.00499 40.8099Z" fill="#2EBD40"/>
<path fill-rule="evenodd" clip-rule="evenodd" d="M3.9143 40.6985L3.7771 40.535L29.4069 19.1281L29.5441 19.2935L3.9143 40.6985Z" fill="#30BD3F"/>
<path fill-rule="evenodd" clip-rule="evenodd" d="M3.82341 40.59L3.68622 40.4266L29.314 19.0196L29.4512 19.183L3.82341 40.59Z" fill="#31BE3F"/>
<path fill-rule="evenodd" clip-rule="evenodd" d="M3.73058 40.4811L3.5954 40.3177L29.2232 18.9107L29.3604 19.0742L3.73058 40.4811Z" fill="#32BE3F"/>
<path fill-rule="evenodd" clip-rule="evenodd" d="M3.63982 40.3721L3.50262 40.2066L29.1325 18.7997L29.2697 18.9651L3.63982 40.3721Z" fill="#34BE3E"/>
<path fill-rule="evenodd" clip-rule="evenodd" d="M3.54894 40.2614L3.41174 40.098L29.0396 18.691L29.1768 18.8544L3.54894 40.2614Z" fill="#35BE3E"/>
<path fill-rule="evenodd" clip-rule="evenodd" d="M3.45824 40.1521L3.32104 39.9887L28.9489 18.5818L29.0861 18.7452L3.45824 40.1521Z" fill="#36BF3D"/>
<path fill-rule="evenodd" clip-rule="evenodd" d="M3.36541 40.0435L3.22821 39.878L28.858 18.4731L28.9952 18.6365L3.36541 40.0435Z" fill="#38BF3D"/>
<path fill-rule="evenodd" clip-rule="evenodd" d="M3.27471 39.9342L3.13751 39.7688L28.7653 18.3618L28.9025 18.5273L3.27471 39.9342Z" fill="#39BF3D"/>
<path fill-rule="evenodd" clip-rule="evenodd" d="M3.18389 39.8231L3.04669 39.6597L28.6745 18.2528L28.8117 18.4182L3.18389 39.8231Z" fill="#3BBF3C"/>
<path fill-rule="evenodd" clip-rule="evenodd" d="M3.091 39.7145L2.9538 39.5511L28.5836 18.1441L28.7208 18.3075L3.091 39.7145Z" fill="#3CC03C"/>
<path fill-rule="evenodd" clip-rule="evenodd" d="M3.00023 39.6056L2.86304 39.4402L28.4909 18.0352L28.6301 18.1987L3.00023 39.6056Z" fill="#3DC03B"/>
<path fill-rule="evenodd" clip-rule="evenodd" d="M2.90947 39.4964L2.77228 39.3309L28.4001 17.924L28.5373 18.0894L2.90947 39.4964Z" fill="#3FC03B"/>
<path fill-rule="evenodd" clip-rule="evenodd" d="M2.81664 39.3851L2.67944 39.2216L28.3093 17.8147L28.4465 17.9801L2.81664 39.3851Z" fill="#40C03A"/>
<path fill-rule="evenodd" clip-rule="evenodd" d="M2.72576 39.2766L2.58856 39.1132L28.2184 17.7062L28.3556 17.8697L2.72576 39.2766Z" fill="#42C13A"/>
<path fill-rule="evenodd" clip-rule="evenodd" d="M2.635 39.1678L2.4978 39.0043L28.1256 17.5974L28.2628 17.7608L2.635 39.1678Z" fill="#43C13A"/>
<path fill-rule="evenodd" clip-rule="evenodd" d="M2.54228 39.0589L2.4071 38.8935L28.0349 17.4865L28.1721 17.6519L2.54228 39.0589Z" fill="#44C139"/>
<path fill-rule="evenodd" clip-rule="evenodd" d="M2.45141 38.948L2.31421 38.7846L27.944 17.3777L28.0812 17.5431L2.45141 38.948Z" fill="#46C139"/>
<path fill-rule="evenodd" clip-rule="evenodd" d="M2.36071 38.8388L2.22351 38.6753L27.8513 17.2684L27.9885 17.4318L2.36071 38.8388Z" fill="#47C238"/>
<path fill-rule="evenodd" clip-rule="evenodd" d="M2.26781 38.7301L2.13263 38.5646L27.7604 17.1597L27.8976 17.3231L2.26781 38.7301Z" fill="#49C238"/>
<path fill-rule="evenodd" clip-rule="evenodd" d="M2.17706 38.6211L2.03986 38.4556L27.6697 17.0487L27.8069 17.2141L2.17706 38.6211Z" fill="#4AC237"/>
<path fill-rule="evenodd" clip-rule="evenodd" d="M2.08629 38.51L1.9491 38.3465L27.5769 16.9396L27.7141 17.105L2.08629 38.51Z" fill="#4CC237"/>
<path fill-rule="evenodd" clip-rule="evenodd" d="M1.99541 38.4009L1.85822 38.2375L27.486 16.8305L27.6232 16.994L1.99541 38.4009Z" fill="#4DC337"/>
<path fill-rule="evenodd" clip-rule="evenodd" d="M1.90258 38.2921L1.76538 38.1286L27.3952 16.7217L27.5324 16.8851L1.90258 38.2921Z" fill="#4FC336"/>
<path fill-rule="evenodd" clip-rule="evenodd" d="M1.81182 38.1828L1.67462 38.0174L27.3024 16.6104L27.4396 16.7759L1.81182 38.1828Z" fill="#50C336"/>
<path fill-rule="evenodd" clip-rule="evenodd" d="M1.72112 38.0719L1.58392 37.9085L27.2117 16.5015L27.3489 16.665L1.72112 38.0719Z" fill="#52C435"/>
<path fill-rule="evenodd" clip-rule="evenodd" d="M1.62823 37.9633L1.49103 37.7998L27.1209 16.3929L27.2581 16.5563L1.62823 37.9633Z" fill="#53C435"/>
<path fill-rule="evenodd" clip-rule="evenodd" d="M1.53753 37.854L1.40033 37.6886L27.0281 16.2836L27.1674 16.447L1.53753 37.854Z" fill="#55C434"/>
<path fill-rule="evenodd" clip-rule="evenodd" d="M1.44664 37.7455L1.30945 37.5801L26.9373 16.1731L27.0745 16.3386L1.44664 37.7455Z" fill="#56C434"/>
<path fill-rule="evenodd" clip-rule="evenodd" d="M1.35387 37.6341L1.21667 37.4706L26.8465 16.0637L26.9837 16.2291L1.35387 37.6341Z" fill="#58C533"/>
<path fill-rule="evenodd" clip-rule="evenodd" d="M1.26312 37.5254L1.12592 37.362L26.7558 15.955L26.893 16.1184L1.26312 37.5254Z" fill="#59C533"/>
<path fill-rule="evenodd" clip-rule="evenodd" d="M1.17229 37.4167L1.0351 37.2533L26.6629 15.8464L26.8001 16.0098L1.17229 37.4167Z" fill="#5BC532"/>
<path fill-rule="evenodd" clip-rule="evenodd" d="M1.08142 37.3075L0.9422 37.1421L26.572 15.7351L26.7092 15.9005L1.08142 37.3075Z" fill="#5CC532"/>
<path fill-rule="evenodd" clip-rule="evenodd" d="M0.98864 37.1966L0.85144 37.0332L26.4813 15.6262L26.6185 15.7917L0.98864 37.1966Z" fill="#5EC632"/>
<path fill-rule="evenodd" clip-rule="evenodd" d="M0.897878 37.0875L0.760681 36.9241L26.3885 15.5172L26.5257 15.6806L0.897878 37.0875Z" fill="#5FC631"/>
<path fill-rule="evenodd" clip-rule="evenodd" d="M0.807058 36.9785L0.669861 36.8151L26.2977 15.4081L26.4349 15.5715L0.807058 36.9785Z" fill="#61C631"/>
<path fill-rule="evenodd" clip-rule="evenodd" d="M0.714287 36.8694L0.577087 36.704L26.2069 15.297L26.3441 15.4625L0.714287 36.8694Z" fill="#62C630"/>
<path fill-rule="evenodd" clip-rule="evenodd" d="M0.623464 36.7585L0.486267 36.5951L26.1141 15.1882L26.2513 15.3536L0.623464 36.7585Z" fill="#64C730"/>
<path fill-rule="evenodd" clip-rule="evenodd" d="M0.532705 36.6497L0.395508 36.4863L26.0233 15.0793L26.1605 15.2427L0.532705 36.6497Z" fill="#65C72F"/>
<path fill-rule="evenodd" clip-rule="evenodd" d="M0.439934 36.5408L0.302734 36.3754L25.9326 14.9704L26.0698 15.1339L0.439934 36.5408Z" fill="#67C72F"/>
<path fill-rule="evenodd" clip-rule="evenodd" d="M0.34905 36.432L0.211853 36.2665L25.8417 14.8596L25.9769 15.025L0.34905 36.432Z" fill="#68C82E"/>
<path fill-rule="evenodd" clip-rule="evenodd" d="M0.258229 36.3207L0.121033 36.1573L25.7488 14.7503L25.886 14.9158L0.258229 36.3207Z" fill="#6AC82E"/>
<path fill-rule="evenodd" clip-rule="evenodd" d="M0.165459 36.2118L0.0282593 36.0484L25.6581 14.6414L25.7953 14.8049L0.165459 36.2118Z" fill="#6BC82D"/>
<path fill-rule="evenodd" clip-rule="evenodd" d="M0.0746967 36.1026L-0.0625 35.9391L25.5673 14.5322L25.7025 14.6956L0.0746967 36.1026Z" fill="#6DC82D"/>
<path fill-rule="evenodd" clip-rule="evenodd" d="M-0.0161236 35.9939L-0.15332 35.8285L25.4745 14.4215L25.6117 14.587L-0.0161236 35.9939Z" fill="#6EC92C"/>
<path fill-rule="evenodd" clip-rule="evenodd" d="M-0.109016 35.8829L-0.246216 35.7194L25.3836 14.3125L25.5208 14.4779L-0.109016 35.8829Z" fill="#70C92C"/>
<path fill-rule="evenodd" clip-rule="evenodd" d="M-0.199653 35.7738L-0.336853 35.6103L25.293 14.2034L25.4302 14.3668L-0.199653 35.7738Z" fill="#71C92C"/>
<path fill-rule="evenodd" clip-rule="evenodd" d="M-0.290477 35.6653L-0.427673 35.4999L25.2001 14.0949L25.3373 14.2584L-0.290477 35.6653Z" fill="#73C92B"/>
<path fill-rule="evenodd" clip-rule="evenodd" d="M-0.383247 35.5563L-0.520447 35.3908L25.1094 13.9839L25.2466 14.1493L-0.383247 35.5563Z" fill="#74CA2B"/>
<path fill-rule="evenodd" clip-rule="evenodd" d="M-0.474128 35.445L-0.611328 35.2816L25.0185 13.8746L25.1557 14.04L-0.474128 35.445Z" fill="#76CA2A"/>
<path fill-rule="evenodd" clip-rule="evenodd" d="M-0.564952 35.3363L-0.702148 35.1729L24.9257 13.7659L25.0629 13.9294L-0.564952 35.3363Z" fill="#77CA2A"/>
<path fill-rule="evenodd" clip-rule="evenodd" d="M-0.655711 35.2275L-0.792908 35.064L24.8349 13.6571L24.9721 13.8205L-0.655711 35.2275Z" fill="#79CA29"/>
<path fill-rule="evenodd" clip-rule="evenodd" d="M-0.748481 35.1182L-0.885681 34.9528L24.7442 13.5458L24.8814 13.7113L-0.748481 35.1182Z" fill="#7ACB29"/>
<path fill-rule="evenodd" clip-rule="evenodd" d="M-0.839305 35.0075L-0.976501 34.8441L24.6513 13.4371L24.7885 13.6026L-0.839305 35.0075Z" fill="#7CCB28"/>
<path fill-rule="evenodd" clip-rule="evenodd" d="M-0.930064 34.8983L-1.06726 34.7349L24.5606 13.3279L24.6978 13.4913L-0.930064 34.8983Z" fill="#7DCB28"/>
<path fill-rule="evenodd" clip-rule="evenodd" d="M-1.02283 34.7896L-1.16003 34.6262L24.4698 13.2192L24.607 13.3826L-1.02283 34.7896Z" fill="#7FCC27"/>
<path fill-rule="evenodd" clip-rule="evenodd" d="M-1.11366 34.68L-1.25085 34.5145L24.379 13.1076L24.5142 13.273L-1.11366 34.68Z" fill="#80CC27"/>
<path fill-rule="evenodd" clip-rule="evenodd" d="M-1.20442 34.5695L-1.34161 34.4061L24.2862 12.9991L24.4234 13.1645L-1.20442 34.5695Z" fill="#82CC26"/>
<path fill-rule="evenodd" clip-rule="evenodd" d="M-1.29731 34.4604L-1.43451 34.297L24.1953 12.89L24.3325 13.0535L-1.29731 34.4604Z" fill="#83CC26"/>
<path fill-rule="evenodd" clip-rule="evenodd" d="M-1.38813 34.3515L-1.52533 34.1881L24.1045 12.7812L24.2397 12.9446L-1.38813 34.3515Z" fill="#85CD26"/>
<path fill-rule="evenodd" clip-rule="evenodd" d="M-1.47889 34.2429L-1.61609 34.0775L24.0117 12.6705L24.1489 12.8359L-1.47889 34.2429Z" fill="#86CD25"/>
<path fill-rule="evenodd" clip-rule="evenodd" d="M-1.57167 34.1314L-1.70685 33.968L23.921 12.561L24.0582 12.7265L-1.57167 34.1314Z" fill="#88CD25"/>
<path fill-rule="evenodd" clip-rule="evenodd" d="M-1.66254 34.023L-1.79974 33.8595L23.8301 12.4526L23.9673 12.616L-1.66254 34.023Z" fill="#89CD24"/>
<path fill-rule="evenodd" clip-rule="evenodd" d="M-1.75325 33.9139L-1.89044 33.7505L23.7374 12.3435L23.8746 12.5069L-1.75325 33.9139Z" fill="#8BCE24"/>
<path fill-rule="evenodd" clip-rule="evenodd" d="M-1.84608 33.8049L-1.98126 33.6394L23.6466 12.2325L23.7838 12.3979L-1.84608 33.8049Z" fill="#8CCE23"/>
<path fill-rule="evenodd" clip-rule="evenodd" d="M-1.93684 33.6938L-2.07404 33.5303L23.5558 12.1234L23.693 12.2888L-1.93684 33.6938Z" fill="#8ECE23"/>
<path fill-rule="evenodd" clip-rule="evenodd" d="M-2.0276 33.5849L-2.16479 33.4215L23.463 12.0145L23.6002 12.178L-2.0276 33.5849Z" fill="#8FCE22"/>
<path fill-rule="evenodd" clip-rule="evenodd" d="M-2.11848 33.4758L-2.25568 33.3104L23.3721 11.9055L23.5093 12.0689L-2.11848 33.4758Z" fill="#91CF22"/>
<path fill-rule="evenodd" clip-rule="evenodd" d="M-2.21125 33.3666L-2.34845 33.2011L23.2814 11.7942L23.4186 11.9596L-2.21125 33.3666Z" fill="#92CF22"/>
<path fill-rule="evenodd" clip-rule="evenodd" d="M-2.30207 33.2559L-2.43927 33.0925L23.1885 11.6855L23.3257 11.851L-2.30207 33.2559Z" fill="#94CF21"/>
<path fill-rule="evenodd" clip-rule="evenodd" d="M-2.39283 33.1473L-2.53003 32.9838L23.0978 11.5769L23.235 11.7403L-2.39283 33.1473Z" fill="#95D021"/>
<path fill-rule="evenodd" clip-rule="evenodd" d="M-2.48573 33.0384L-2.62292 32.875L23.0069 11.468L23.1441 11.6314L-2.48573 33.0384Z" fill="#96D020"/>
<path fill-rule="evenodd" clip-rule="evenodd" d="M-2.57643 32.9293L-2.71362 32.7639L22.9142 11.3569L23.0534 11.5224L-2.57643 32.9293Z" fill="#98D020"/>
<path fill-rule="evenodd" clip-rule="evenodd" d="M-2.66719 32.8181L-2.80438 32.6546L22.8234 11.2477L22.9606 11.4131L-2.66719 32.8181Z" fill="#99D01F"/>
<path fill-rule="evenodd" clip-rule="evenodd" d="M-2.76002 32.7096L-2.89722 32.5462L22.7326 11.1392L22.8698 11.3026L-2.76002 32.7096Z" fill="#9BD11F"/>
<path fill-rule="evenodd" clip-rule="evenodd" d="M-2.8509 32.6001L-2.9881 32.4367L22.6417 11.0297L22.7789 11.1932L-2.8509 32.6001Z" fill="#9CD11E"/>
<path fill-rule="evenodd" clip-rule="evenodd" d="M-2.94166 32.4911L-3.07886 32.3256L22.549 10.9207L22.6862 11.0841L-2.94166 32.4911Z" fill="#9ED11E"/>
<path fill-rule="evenodd" clip-rule="evenodd" d="M-3.03443 32.3804L-3.17163 32.217L22.4582 10.81L22.5954 10.9755L-3.03443 32.3804Z" fill="#9FD11E"/>
<path fill-rule="evenodd" clip-rule="evenodd" d="M-3.12525 32.2711L-3.26245 32.1077L22.3674 10.7008L22.5046 10.8642L-3.12525 32.2711Z" fill="#A0D21D"/>
<path fill-rule="evenodd" clip-rule="evenodd" d="M-3.21614 32.1625L-3.35333 31.9991L22.2745 10.5921L22.4117 10.7555L-3.21614 32.1625Z" fill="#A2D21D"/>
<path fill-rule="evenodd" clip-rule="evenodd" d="M-3.30885 32.0534L-3.44403 31.888L22.1838 10.481L22.321 10.6465L-3.30885 32.0534Z" fill="#A3D21C"/>
<path fill-rule="evenodd" clip-rule="evenodd" d="M-3.39973 31.9425L-3.53693 31.7791L22.0929 10.3722L22.2301 10.5376L-3.39973 31.9425Z" fill="#A5D21C"/>
<path fill-rule="evenodd" clip-rule="evenodd" d="M-3.49037 31.8337L-3.62756 31.6703L22.0003 10.2633L22.1375 10.4267L-3.49037 31.8337Z" fill="#A6D31B"/>
<path fill-rule="evenodd" clip-rule="evenodd" d="M-3.58119 31.7248L-3.71838 31.5614L21.9094 10.1544L22.0466 10.3179L-3.58119 31.7248Z" fill="#A7D31B"/>
<path fill-rule="evenodd" clip-rule="evenodd" d="M-3.67408 31.6158L-3.81128 31.4503L21.8186 10.0434L21.9558 10.2088L-3.67408 31.6158Z" fill="#A9D31B"/>
<path fill-rule="evenodd" clip-rule="evenodd" d="M-3.76484 31.5047L-3.90204 31.3413L21.7258 9.93431L21.863 10.0998L-3.76484 31.5047Z" fill="#AAD31A"/>
<path fill-rule="evenodd" clip-rule="evenodd" d="M-3.85566 31.3958L-3.99286 31.2324L21.635 9.82545L21.7722 9.98887L-3.85566 31.3958Z" fill="#ABD31A"/>
<path fill-rule="evenodd" clip-rule="evenodd" d="M-3.94843 31.287L-4.08563 31.1235L21.5442 9.71658L21.6814 9.88001L-3.94843 31.287Z" fill="#ADD419"/>
<path fill-rule="evenodd" clip-rule="evenodd" d="M-4.03932 31.1779L-4.17651 31.0125L21.4513 9.60552L21.5885 9.77096L-4.03932 31.1779Z" fill="#AED419"/>
<path fill-rule="evenodd" clip-rule="evenodd" d="M-4.13002 31.0669L-4.26721 30.9034L21.3606 9.49646L21.4978 9.66191L-4.13002 31.0669Z" fill="#AFD419"/>
<path fill-rule="evenodd" clip-rule="evenodd" d="M-4.22285 30.958L-4.36005 30.7945L21.2698 9.38759L21.407 9.55102L-4.22285 30.958Z" fill="#B1D418"/>
<path fill-rule="evenodd" clip-rule="evenodd" d="M-4.31355 30.8489L-4.45074 30.6855L21.1791 9.27853L21.3163 9.44197L-4.31355 30.8489Z" fill="#B2D518"/>
<path fill-rule="evenodd" clip-rule="evenodd" d="M-4.40437 30.7399L-4.54156 30.5744L21.0863 9.16747L21.2234 9.33291L-4.40437 30.7399Z" fill="#B3D517"/>
<path fill-rule="evenodd" clip-rule="evenodd" d="M-4.49726 30.6292L-4.63446 30.4657L20.9954 9.0588L21.1326 9.22425L-4.49726 30.6292Z" fill="#B5D517"/>
<path fill-rule="evenodd" clip-rule="evenodd" d="M-4.58802 30.5203L-4.72522 30.3569L20.9046 8.94994L21.0418 9.11336L-4.58802 30.5203Z" fill="#B6D517"/>
<path fill-rule="evenodd" clip-rule="evenodd" d="M-4.67878 30.4109L-4.81598 30.2474L20.8118 8.84047L20.949 9.0039L-4.67878 30.4109Z" fill="#B7D616"/>
<path fill-rule="evenodd" clip-rule="evenodd" d="M-4.76972 30.3022L-4.90692 30.1367L20.7209 8.73181L20.8581 8.89524L-4.76972 30.3022Z" fill="#B9D616"/>
<path fill-rule="evenodd" clip-rule="evenodd" d="M-4.8625 30.1913L-4.99969 30.0279L20.6301 8.62094L20.7673 8.78639L-4.8625 30.1913Z" fill="#BAD615"/>
<path fill-rule="evenodd" clip-rule="evenodd" d="M-4.95326 30.0819L-5.09045 29.9184L20.5374 8.51148L20.6746 8.67491L-4.95326 30.0819Z" fill="#BBD615"/>
<path fill-rule="evenodd" clip-rule="evenodd" d="M-5.04395 29.9732L-5.18115 29.8098L20.4467 8.40282L20.5839 8.56624L-5.04395 29.9732Z" fill="#BCD615"/>
<path fill-rule="evenodd" clip-rule="evenodd" d="M-5.13685 29.8642L-5.27405 29.6987L20.3558 8.29176L20.493 8.4572L-5.13685 29.8642Z" fill="#BED714"/>
<path fill-rule="evenodd" clip-rule="evenodd" d="M-5.22761 29.7533L-5.36481 29.5899L20.265 8.18289L20.4002 8.34834L-5.22761 29.7533Z" fill="#BFD714"/>
<path fill-rule="evenodd" clip-rule="evenodd" d="M-5.31843 29.6448L-5.45563 29.4814L20.1722 8.07442L20.3094 8.23785L-5.31843 29.6448Z" fill="#C0D714"/>
<path fill-rule="evenodd" clip-rule="evenodd" d="M-5.4112 29.5355L-5.5484 29.3721L20.0814 7.96516L20.2186 8.12859L-5.4112 29.5355Z" fill="#C1D713"/>
<path fill-rule="evenodd" clip-rule="evenodd" d="M-5.50196 29.4267L-5.63916 29.2612L19.9907 7.85629L20.1259 8.01972L-5.50196 29.4267Z" fill="#C2D813"/>
<path fill-rule="evenodd" clip-rule="evenodd" d="M-5.59278 29.3156L-5.72998 29.1522L19.8978 7.74524L20.035 7.91069L-5.59278 29.3156Z" fill="#C4D812"/>
<path fill-rule="evenodd" clip-rule="evenodd" d="M-5.68568 29.2067L-5.82288 29.0433L19.807 7.63637L19.9442 7.79979L-5.68568 29.2067Z" fill="#C5D812"/>
<path fill-rule="evenodd" clip-rule="evenodd" d="M-5.77644 29.0975L-5.91364 28.9341L19.7162 7.52711L19.8534 7.69053L-5.77644 29.0975Z" fill="#C6D812"/>
<path fill-rule="evenodd" clip-rule="evenodd" d="M-5.86714 28.989L-6.00433 28.8236L19.6235 7.41664L19.7607 7.58209L-5.86714 28.989Z" fill="#C7D811"/>
<path fill-rule="evenodd" clip-rule="evenodd" d="M-5.96003 28.8778L-6.09723 28.7143L19.5326 7.30738L19.6698 7.47283L-5.96003 28.8778Z" fill="#C8D911"/>
<path fill-rule="evenodd" clip-rule="evenodd" d="M-6.05079 28.7685L-6.18799 28.6051L19.4418 7.19812L19.579 7.36155L-6.05079 28.7685Z" fill="#C9D911"/>
<path fill-rule="evenodd" clip-rule="evenodd" d="M-6.14161 28.6598L-6.27881 28.4964L19.349 7.08945L19.4862 7.25287L-6.14161 28.6598Z" fill="#CBD910"/>
<path fill-rule="evenodd" clip-rule="evenodd" d="M-6.23237 28.5508L-6.36957 28.3853L19.2583 6.97839L19.3955 7.14384L-6.23237 28.5508Z" fill="#CCD910"/>
<path fill-rule="evenodd" clip-rule="evenodd" d="M-6.32514 28.4399L-6.46234 28.2765L19.1675 6.86952L19.3047 7.03496L-6.32514 28.4399Z" fill="#CDD910"/>
<path fill-rule="evenodd" clip-rule="evenodd" d="M-6.41602 28.3313L-6.55322 28.1678L19.0746 6.76086L19.2118 6.92429L-6.41602 28.3313Z" fill="#CEDA0F"/>
<path fill-rule="evenodd" clip-rule="evenodd" d="M-6.50684 28.222L-6.64404 28.0585L18.9838 6.6516L19.121 6.81502L-6.50684 28.222Z" fill="#CFDA0F"/>
<path fill-rule="evenodd" clip-rule="evenodd" d="M-6.59962 28.1133L-6.73682 27.9479L18.893 6.54293L19.0302 6.70636L-6.59962 28.1133Z" fill="#D0DA0F"/>
<path fill-rule="evenodd" clip-rule="evenodd" d="M-6.69038 28.0023L-6.82758 27.8388L18.8002 6.43187L18.9374 6.59732L-6.69038 28.0023Z" fill="#D1DA0E"/>
<path fill-rule="evenodd" clip-rule="evenodd" d="M-6.78108 27.8932L-6.91827 27.7298L18.7095 6.32281L18.8467 6.48623L-6.78108 27.8932Z" fill="#D2DA0E"/>
<path fill-rule="evenodd" clip-rule="evenodd" d="M-6.87409 27.7841L-7.01129 27.6207L18.6185 6.21375L18.7557 6.37717L-6.87409 27.7841Z" fill="#D3DB0E"/>
<path fill-rule="evenodd" clip-rule="evenodd" d="M-6.96479 27.6753L-7.10199 27.5098L18.5278 6.10287L18.663 6.26831L-6.96479 27.6753Z" fill="#D4DB0D"/>
<path fill-rule="evenodd" clip-rule="evenodd" d="M-7.05555 27.5662L-7.19275 27.4008L18.4351 5.99381L18.5723 6.15926L-7.05555 27.5662Z" fill="#D5DB0D"/>
<path fill-rule="evenodd" clip-rule="evenodd" d="M-7.14832 27.4553L-7.28552 27.2919L18.3443 5.88495L18.4815 6.04838L-7.14832 27.4553Z" fill="#D6DB0D"/>
<path fill-rule="evenodd" clip-rule="evenodd" d="M-7.23921 27.3467L-7.3764 27.1832L18.2534 5.77628L18.3906 5.93972L-7.23921 27.3467Z" fill="#D7DB0C"/>
<path fill-rule="evenodd" clip-rule="evenodd" d="M-7.33003 27.2374L-7.46722 27.072L18.1606 5.66702L18.2978 5.83045L-7.33003 27.2374Z" fill="#D8DB0C"/>
<path fill-rule="evenodd" clip-rule="evenodd" d="M-7.4228 27.1265L-7.56 26.9631L18.0698 5.55616L18.207 5.72161L-7.4228 27.1265Z" fill="#D9DC0C"/>
<path fill-rule="evenodd" clip-rule="evenodd" d="M-7.51356 27.0177L-7.65076 26.8543L17.9791 5.4473L18.1163 5.61072L-7.51356 27.0177Z" fill="#DADC0C"/>
<path fill-rule="evenodd" clip-rule="evenodd" d="M-7.60438 26.9086L-7.74158 26.7452L17.8862 5.33823L18.0234 5.50165L-7.60438 26.9086Z" fill="#DBDC0B"/>
<path fill-rule="evenodd" clip-rule="evenodd" d="M-7.69514 26.7993L-7.83234 26.6339L17.7955 5.22897L17.9327 5.39239L-7.69514 26.7993Z" fill="#DCDC0B"/>
<path fill-rule="evenodd" clip-rule="evenodd" d="M-7.78791 26.6891L-7.92511 26.5257L17.7047 5.11871L17.8419 5.28415L-7.78791 26.6891Z" fill="#DDDC0B"/>
<path fill-rule="evenodd" clip-rule="evenodd" d="M-7.87873 26.5794L-8.01593 26.416L17.6119 5.00904L17.7491 5.17247L-7.87873 26.5794Z" fill="#DEDC0A"/>
<path fill-rule="evenodd" clip-rule="evenodd" d="M-7.96949 26.4706L-8.10669 26.3071L17.5211 4.90018L17.6583 5.0636L-7.96949 26.4706Z" fill="#DFDD0A"/>
<path fill-rule="evenodd" clip-rule="evenodd" d="M-8.06239 26.3619L-8.19958 26.1964L17.4303 4.79151L17.5674 4.95494L-8.06239 26.3619Z" fill="#E0DD0A"/>
<path fill-rule="evenodd" clip-rule="evenodd" d="M-8.15321 26.2506L-8.29041 26.0872L17.3374 4.68025L17.4766 4.8457L-8.15321 26.2506Z" fill="#E1DD0A"/>
<path fill-rule="evenodd" clip-rule="evenodd" d="M-8.24397 26.1422L-8.38116 25.9787L17.2467 4.57178L17.3839 4.73521L-8.24397 26.1422Z" fill="#E2DD09"/>
<path fill-rule="evenodd" clip-rule="evenodd" d="M-8.33674 26.0329L-8.47394 25.8695L17.1559 4.46252L17.2931 4.62595L-8.33674 26.0329Z" fill="#E2DD09"/>
<path fill-rule="evenodd" clip-rule="evenodd" d="M-8.42762 25.924L-8.56482 25.7586L17.065 4.35365L17.2022 4.51708L-8.42762 25.924Z" fill="#E3DD09"/>
<path fill-rule="evenodd" clip-rule="evenodd" d="M-8.51832 25.813L-8.65552 25.6495L16.9723 4.24259L17.1095 4.40803L-8.51832 25.813Z" fill="#E4DE09"/>
<path fill-rule="evenodd" clip-rule="evenodd" d="M-8.61109 25.7043L-8.74829 25.5409L16.8815 4.13393L17.0187 4.29735L-8.61109 25.7043Z" fill="#E5DE08"/>
<path fill-rule="evenodd" clip-rule="evenodd" d="M-8.70191 25.5953L-8.83911 25.4318L16.7907 4.02486L16.9279 4.18829L-8.70191 25.5953Z" fill="#E6DE08"/>
<path fill-rule="evenodd" clip-rule="evenodd" d="M-8.79279 25.4862L-8.92999 25.3208L16.6978 3.9138L16.835 4.07925L-8.79279 25.4862Z" fill="#E7DE08"/>
<path fill-rule="evenodd" clip-rule="evenodd" d="M-8.88557 25.3773L-9.02075 25.2119L16.6071 3.80494L16.7443 3.97039L-8.88557 25.3773Z" fill="#E7DE08"/>
<path fill-rule="evenodd" clip-rule="evenodd" d="M-8.97639 25.2661L-9.11359 25.1026L16.5162 3.69567L16.6534 3.8591L-8.97639 25.2661Z" fill="#E8DE07"/>
<path fill-rule="evenodd" clip-rule="evenodd" d="M-9.06715 25.1572L-9.20435 24.9938L16.4235 3.58681L16.5607 3.75023L-9.06715 25.1572Z" fill="#E9DE07"/>
<path fill-rule="evenodd" clip-rule="evenodd" d="M-9.15791 25.0485L-9.2951 24.8831L16.3327 3.47814L16.4699 3.64157L-9.15791 25.0485Z" fill="#EADF07"/>
<path fill-rule="evenodd" clip-rule="evenodd" d="M-9.25074 24.9375L-9.38794 24.774L16.2419 3.36708L16.3791 3.53252L-9.25074 24.9375Z" fill="#EADF07"/>
<path fill-rule="evenodd" clip-rule="evenodd" d="M-9.3415 24.8284L-9.4787 24.665L16.1491 3.25802L16.2863 3.42145L-9.3415 24.8284Z" fill="#EBDF06"/>
<path fill-rule="evenodd" clip-rule="evenodd" d="M-9.43232 24.7195L-9.56952 24.5561L16.0583 3.14915L16.1955 3.31258L-9.43232 24.7195Z" fill="#ECDF06"/>
<path fill-rule="evenodd" clip-rule="evenodd" d="M-9.52509 24.6107L-9.66229 24.4452L15.9675 3.04029L16.1047 3.20372L-9.52509 24.6107Z" fill="#ECDF06"/>
<path fill-rule="evenodd" clip-rule="evenodd" d="M-9.61598 24.5016L-9.75317 24.3362L15.8746 2.92923L16.0118 3.09468L-9.61598 24.5016Z" fill="#EDDF06"/>
<path fill-rule="evenodd" clip-rule="evenodd" d="M-9.70673 24.3903L-9.84393 24.2269L15.7839 2.81996L15.9211 2.98339L-9.70673 24.3903Z" fill="#EEDF06"/>
<path fill-rule="evenodd" clip-rule="evenodd" d="M-9.79951 24.2817L-9.93671 24.1183L15.6931 2.7113L15.8303 2.87472L-9.79951 24.2817Z" fill="#EEDF05"/>
<path fill-rule="evenodd" clip-rule="evenodd" d="M-9.89033 24.1726L-10.0275 24.0072L15.6023 2.60223L15.7395 2.76566L-9.89033 24.1726Z" fill="#EFE005"/>
<path fill-rule="evenodd" clip-rule="evenodd" d="M-9.98121 24.0636L-10.1184 23.8981L15.5094 2.49117L15.6466 2.65662L-9.98121 24.0636Z" fill="#F0E005"/>
<path fill-rule="evenodd" clip-rule="evenodd" d="M-10.074 23.9525L-10.2112 23.7891L15.4187 2.38211L15.5559 2.54554L-10.074 23.9525Z" fill="#F0E005"/>
<path fill-rule="evenodd" clip-rule="evenodd" d="M-10.1648 23.8438L-10.302 23.6804L15.3278 2.27345L15.465 2.43687L-10.1648 23.8438Z" fill="#F1E005"/>
<path fill-rule="evenodd" clip-rule="evenodd" d="M-10.2554 23.7346L-10.3926 23.5691L15.2352 2.16418L15.3724 2.3276L-10.2554 23.7346Z" fill="#F2E004"/>
<path fill-rule="evenodd" clip-rule="evenodd" d="M-10.3483 23.6241L-10.4835 23.4607L15.1444 2.05372L15.2816 2.21916L-10.3483 23.6241Z" fill="#F2E004"/>
<path fill-rule="evenodd" clip-rule="evenodd" d="M-10.4392 23.5148L-10.5764 23.3514L15.0535 1.94445L15.1907 2.10788L-10.4392 23.5148Z" fill="#F3E004"/>
<path fill-rule="evenodd" clip-rule="evenodd" d="M-10.5299 23.4062L-10.6671 23.2427L14.9607 1.83579L15.0979 1.99923L-10.5299 23.4062Z" fill="#F3E004"/>
<path fill-rule="evenodd" clip-rule="evenodd" d="M-10.6207 23.2969L-10.7579 23.1315L14.8699 1.72652L15.0071 1.88995L-10.6207 23.2969Z" fill="#F4E004"/>
<path fill-rule="evenodd" clip-rule="evenodd" d="M-10.7136 23.1881L-10.8508 23.0226L14.7791 1.61566L14.9163 1.78111L-10.7136 23.1881Z" fill="#F4E004"/>
<path fill-rule="evenodd" clip-rule="evenodd" d="M-10.8044 23.0768L-10.9416 22.9134L14.6862 1.5064L14.8234 1.66983L-10.8044 23.0768Z" fill="#F5E104"/>
<path fill-rule="evenodd" clip-rule="evenodd" d="M-10.8951 22.9683L-11.0323 22.8049L14.5955 1.39793L14.7327 1.56136L-10.8951 22.9683Z" fill="#F5E103"/>
<path fill-rule="evenodd" clip-rule="evenodd" d="M-10.988 22.8593L-11.1252 22.6938L14.5047 1.28887L14.6419 1.4523L-10.988 22.8593Z" fill="#F6E103"/>
<path fill-rule="evenodd" clip-rule="evenodd" d="M-11.0786 22.7482L-11.2158 22.5848L14.412 1.17781L14.5492 1.34326L-11.0786 22.7482Z" fill="#F6E103"/>
<path fill-rule="evenodd" clip-rule="evenodd" d="M-11.1695 22.6393L-11.3067 22.4759L14.3211 1.06895L14.4583 1.23237L-11.1695 22.6393Z" fill="#F7E103"/>
<path fill-rule="evenodd" clip-rule="evenodd" d="M-11.2623 22.5303L-11.3995 22.3668L14.2303 0.959877L14.3675 1.1233L-11.2623 22.5303Z" fill="#F7E103"/>
<path fill-rule="evenodd" clip-rule="evenodd" d="M-11.3531 22.4212L-11.4903 22.2557L14.1395 0.850815L14.2767 1.01424L-11.3531 22.4212Z" fill="#F7E103"/>
<path fill-rule="evenodd" clip-rule="evenodd" d="M-11.4439 22.3125L-11.5811 22.1471L14.0467 0.74015L14.1839 0.905597L-11.4439 22.3125Z" fill="#F8E103"/>
<path fill-rule="evenodd" clip-rule="evenodd" d="M-11.5367 22.2015L-11.6739 22.0381L13.9559 0.631088L14.0931 0.794521L-11.5367 22.2015Z" fill="#F8E102"/>
<path fill-rule="evenodd" clip-rule="evenodd" d="M-11.6276 22.0928L-11.7648 21.9294L13.8651 0.522423L14.0023 0.68585L-11.6276 22.0928Z" fill="#F9E102"/>
<path fill-rule="evenodd" clip-rule="evenodd" d="M-11.7183 21.9835L-11.8555 21.8181L13.7723 0.413162L13.9095 0.576589L-11.7183 21.9835Z" fill="#F9E102"/>
<path fill-rule="evenodd" clip-rule="evenodd" d="M-11.809 21.8747L-11.9462 21.7093L13.6816 0.302299L13.8188 0.46774L-11.809 21.8747Z" fill="#F9E102"/>
<path fill-rule="evenodd" clip-rule="evenodd" d="M-11.9019 21.7636L-12.0391 21.6002L13.5907 0.19323L13.7279 0.356656L-11.9019 21.7636Z" fill="#FAE102"/>
<path fill-rule="evenodd" clip-rule="evenodd" d="M-11.9927 21.6545L-12.1299 21.4911L13.4979 0.0841675L13.6351 0.247594L-11.9927 21.6545Z" fill="#FAE102"/>
<path fill-rule="evenodd" clip-rule="evenodd" d="M-12.0835 21.5459L-12.2207 21.3804L13.4071 -0.024498L13.5443 0.138935L-12.0835 21.5459Z" fill="#FAE202"/>
<path fill-rule="evenodd" clip-rule="evenodd" d="M-12.1763 21.4366L-12.3135 21.2712L13.3164 -0.135757L13.4536 0.0296889L-12.1763 21.4366Z" fill="#FBE202"/>
<path fill-rule="evenodd" clip-rule="evenodd" d="M-12.267 21.3262L-12.4042 21.1627L13.2236 -0.244225L13.3608 -0.0807978L-12.267 21.3262Z" fill="#FBE202"/>
<path fill-rule="evenodd" clip-rule="evenodd" d="M-12.358 21.2169L-12.4952 21.0535L13.1326 -0.353485L13.2698 -0.190058L-12.358 21.2169Z" fill="#FBE202"/>
<path fill-rule="evenodd" clip-rule="evenodd" d="M-12.4508 21.1078L-12.588 20.9424L13.0419 -0.462547L13.1791 -0.299121L-12.4508 21.1078Z" fill="#FBE202"/>
<path fill-rule="evenodd" clip-rule="evenodd" d="M-12.5415 20.9992L-12.6787 20.8337L12.9511 -0.573212L13.0863 -0.407771L-12.5415 20.9992Z" fill="#FBE201"/>
<path fill-rule="evenodd" clip-rule="evenodd" d="M-12.6322 20.8883L-12.7694 20.7249L12.8584 -0.682076L12.9956 -0.518649L-12.6322 20.8883Z" fill="#FCE201"/>
<path fill-rule="evenodd" clip-rule="evenodd" d="M-12.7251 20.779L-12.8623 20.6156L12.7675 -0.791344L12.9047 -0.627917L-12.7251 20.779Z" fill="#FCE201"/>
<path fill-rule="evenodd" clip-rule="evenodd" d="M-12.8159 20.6698L-12.9531 20.5043L12.6768 -0.900604L12.814 -0.737177L-12.8159 20.6698Z" fill="#FCE201"/>
<path fill-rule="evenodd" clip-rule="evenodd" d="M-12.9067 20.5591L-13.0439 20.3957L12.5839 -1.01127L12.7211 -0.845822L-12.9067 20.5591Z" fill="#FCE201"/>
<path fill-rule="evenodd" clip-rule="evenodd" d="M-12.9995 20.4501L-13.1367 20.2866L12.4932 -1.12033L12.6304 -0.956904L-12.9995 20.4501Z" fill="#FCE201"/>
<path fill-rule="evenodd" clip-rule="evenodd" d="M-13.0902 20.3414L-13.2274 20.178L12.4024 -1.229L12.5396 -1.06557L-13.0902 20.3414Z" fill="#FDE201"/>
<path fill-rule="evenodd" clip-rule="evenodd" d="M-13.1811 20.2321L-13.3183 20.0667L12.3095 -1.33826L12.4467 -1.17484L-13.1811 20.2321Z" fill="#FDE201"/>
<path fill-rule="evenodd" clip-rule="evenodd" d="M-13.2719 20.1233L-13.4111 19.9578L12.2187 -1.44912L12.3559 -1.28367L-13.2719 20.1233Z" fill="#FDE201"/>
<path fill-rule="evenodd" clip-rule="evenodd" d="M-13.3647 20.0124L-13.5019 19.849L12.1279 -1.55799L12.2651 -1.39456L-13.3647 20.0124Z" fill="#FDE201"/>
<path fill-rule="evenodd" clip-rule="evenodd" d="M-13.4555 19.9035L-13.5927 19.7401L12.0351 -1.66685L12.1723 -1.50343L-13.4555 19.9035Z" fill="#FDE201"/>
<path fill-rule="evenodd" clip-rule="evenodd" d="M-13.5463 19.7945L-13.6835 19.629L11.9443 -1.77592L12.0815 -1.61249L-13.5463 19.7945Z" fill="#FDE201"/>
<path fill-rule="evenodd" clip-rule="evenodd" d="M-13.639 19.6858L-13.7762 19.5204L11.8536 -1.88658L11.9908 -1.72114L-13.639 19.6858Z" fill="#FDE201"/>
<path fill-rule="evenodd" clip-rule="evenodd" d="M-13.7299 19.5745L-13.8671 19.4111L11.7608 -1.99584L11.8979 -1.8304L-13.7299 19.5745Z" fill="#FDE201"/>
<path fill-rule="evenodd" clip-rule="evenodd" d="M-13.8206 19.4657L-15.5901 17.3492L10.0397 -4.05777L11.8072 -1.94129L-13.8206 19.4657Z" fill="#FDE201"/>
</g>
<path d="M16.6333 10.0514V19.857C15.4711 19.3385 13.6755 19.0076 11.6639 19.0076C9.64021 19.0076 7.83444 19.3425 6.67229 19.863C5.67357 19.2961 4.578 18.8381 3.44208 18.8805C2.98811 18.8946 2.55231 18.9975 2.12861 19.169H2.12457V10.0514C2.12457 6.04234 5.37092 2.79599 9.37792 2.79599C11.3794 2.79599 13.1973 3.60909 14.5087 4.92256C15.8202 6.23402 16.6333 8.04987 16.6333 10.0514Z" fill="white"/>
<path d="M16.6333 21.5924V21.5964C16.4214 21.6529 16.2156 21.7094 16.0058 21.7619C16.2156 21.7094 16.4214 21.6489 16.6333 21.5924Z" fill="white"/>
<path d="M16.6333 19.857V21.5922C16.4214 21.6487 16.2156 21.7092 16.0058 21.7617C15.8 21.8182 15.5882 21.8686 15.3783 21.915C14.9567 22.0139 14.533 22.0905 14.1072 22.1531C13.8651 22.1834 13.623 22.2096 13.3809 22.2237C12.8523 22.2661 12.3216 22.26 11.8011 22.2035C11.7042 22.1934 11.6013 22.1833 11.5045 22.1672C11.107 22.1107 10.7156 22.0179 10.3363 21.8888C9.58373 21.6386 8.89572 21.2411 8.21578 20.8194C7.94946 20.65 7.68111 20.4805 7.40873 20.311C7.27355 20.2222 7.14039 20.1395 7.00117 20.0588C6.89424 19.9902 6.78125 19.9297 6.6723 19.8631C7.83445 19.3425 9.64022 19.0076 11.6639 19.0076C13.6755 19.0076 15.4711 19.3385 16.6333 19.857Z" fill="#0A90C8"/>
<path d="M9.18011 16.3282C9.18011 17.5045 8.22577 18.4608 7.04748 18.4608C5.86919 18.4608 4.91486 17.5045 4.91486 16.3282C4.91486 15.1499 5.86919 14.1956 7.04748 14.1956C8.22577 14.1956 9.18011 15.1499 9.18011 16.3282Z" fill="#00B54E"/>
<path fill-rule="evenodd" clip-rule="evenodd" d="M13.6976 15.0751C13.6976 15.9266 13.0056 16.6186 12.1541 16.6186C11.3027 16.6186 10.6127 15.9266 10.6127 15.0751C10.6127 14.2237 11.3027 13.5316 12.1541 13.5316C13.0056 13.5316 13.6976 14.2237 13.6976 15.0751Z" fill="#0A90C8"/>
<path d="M10.6632 11.3546C10.6632 11.9559 10.1749 12.4441 9.57364 12.4441C8.97239 12.4441 8.48413 11.9559 8.48413 11.3546C8.48413 10.7534 8.97239 10.2651 9.57364 10.2651C10.1749 10.2651 10.6632 10.7534 10.6632 11.3546Z" fill="#0A90C8"/>
<path d="M37.4086 15.1705C37.0213 15.6023 36.4664 15.8242 35.7461 15.8242H28.4141V11.0546H35.7461C36.4563 11.0546 37.0112 11.2765 37.3986 11.7143C37.7779 12.14 37.9736 12.7211 37.9736 13.4414C37.9736 14.1617 37.7839 14.7428 37.4086 15.1705ZM28.4141 4.25316H35.2881C35.8753 4.25316 36.3595 4.43273 36.7186 4.78783C37.0838 5.14293 37.2694 5.63725 37.2694 6.24859C37.2694 6.86598 37.0838 7.35626 36.7186 7.7053C36.3595 8.05435 35.8753 8.22989 35.2881 8.22989H28.4141V4.25316ZM39.8823 9.66038L39.5372 9.48081L39.8419 9.23264C40.9011 8.37314 41.4156 7.37038 41.4156 6.17192C41.4156 5.08644 41.1069 4.1664 40.4996 3.44006C39.8823 2.69959 39.1216 2.17501 38.248 1.88245C37.3522 1.58385 36.3373 1.42849 35.2417 1.42849H25.1899C24.9377 1.42849 24.7198 1.5213 24.5403 1.70087C24.3546 1.88246 24.2679 2.09229 24.2679 2.35054V17.743C24.2679 17.9952 24.3546 18.207 24.5403 18.3805C24.7198 18.5621 24.9317 18.6489 25.1899 18.6489H35.8228C37.5983 18.6489 39.1115 18.1969 40.3261 17.3011C41.5347 16.4113 42.1218 15.1907 42.1218 13.5604C42.1258 11.7446 41.3955 10.4674 39.8823 9.66038Z" fill="#00B54E"/>
<path d="M57.2177 14.6418C56.3381 15.6809 54.9136 16.2095 52.9848 16.2095C51.0539 16.2095 49.6295 15.6809 48.7458 14.6418C47.8701 13.6108 47.4283 12.0693 47.4283 10.0517C47.4283 8.04013 47.8701 6.49665 48.7458 5.46162C49.1876 4.93703 49.7626 4.54158 50.4728 4.27929C51.179 4.017 52.0224 3.88182 52.9848 3.88182C54.9136 3.88182 56.3381 4.41245 57.2177 5.46162C58.0873 6.49665 58.5312 8.04013 58.5312 10.0517C58.5312 12.0693 58.0873 13.6067 57.2177 14.6418ZM60.2381 3.20794C58.6079 1.7835 56.1686 1.05715 52.9848 1.05715C49.805 1.05715 47.3597 1.7835 45.7294 3.20794C44.1032 4.62834 43.28 6.92843 43.28 10.0457C43.28 13.1649 44.1032 15.463 45.7294 16.8834C47.3597 18.3098 49.805 19.0342 52.9848 19.0342C56.1686 19.0342 58.6079 18.3098 60.2381 16.8834C61.8583 15.463 62.6774 13.1649 62.6774 10.0457C62.6774 6.92843 61.8583 4.62834 60.2381 3.20794Z" fill="#00B44E"/>
<path d="M81.2011 1.69684C81.0458 1.51525 80.8763 1.42849 80.6604 1.42849H74.4764C69.9448 1.43858 67.3401 2.9518 66.527 6.05893L63.3896 17.9286C63.3734 18.0012 63.3634 18.0678 63.3533 18.1283C63.3573 18.2211 63.3936 18.324 63.4763 18.4269C63.5893 18.5823 63.7386 18.6489 63.9444 18.6489H66.4705C66.7388 18.6489 66.991 18.5621 67.2372 18.3765C67.4793 18.1949 67.6347 17.9689 67.7012 17.6925L70.5299 7.098C70.7519 6.2849 71.1796 5.62716 71.8111 5.14293C72.4386 4.66072 73.1912 4.4186 74.0285 4.4186H77.297V17.743C77.297 18.0012 77.3838 18.207 77.5593 18.3866C77.7389 18.5662 77.9447 18.6489 78.2009 18.6489H80.5636C80.8158 18.6489 81.0155 18.5662 81.185 18.3906C81.3605 18.2111 81.4433 18.0012 81.4433 17.743V2.35054C81.4433 2.10238 81.3605 1.89255 81.2011 1.69684Z" fill="#00B44E"/>
<path d="M101.686 1.70087C101.504 1.51525 101.289 1.42849 101.022 1.42849H98.7222C98.47 1.42849 98.2541 1.5213 98.0725 1.70087C97.8929 1.88044 97.8001 2.09834 97.8001 2.35054V8.16935H88.7773V2.35054C88.7773 2.09229 88.6946 1.88044 88.515 1.70087C88.3334 1.51525 88.1276 1.42849 87.8754 1.42849H85.5713C85.303 1.42849 85.083 1.5213 84.9015 1.70087C84.7219 1.88044 84.6291 2.09229 84.6291 2.35054V17.743C84.6291 17.9952 84.7219 18.207 84.9075 18.3805C85.1032 18.5621 85.3191 18.6489 85.5713 18.6489H87.8754C88.1276 18.6489 88.3395 18.5662 88.5191 18.3967C88.6946 18.2272 88.7773 18.0214 88.7773 17.7692V11.1575H97.8001V17.7692C97.8001 18.0214 97.8889 18.2211 98.0685 18.3926C98.248 18.5662 98.4639 18.6489 98.7222 18.6489H101.022C101.272 18.6489 101.49 18.5621 101.674 18.3805C101.86 18.207 101.952 17.9952 101.952 17.743V2.35054C101.952 2.09229 101.866 1.88044 101.686 1.70087Z" fill="#00B44E"/>
<path d="M118.063 11.3834H109.646L110.794 7.098C111.009 6.2849 111.441 5.62716 112.075 5.14293C112.702 4.66072 113.453 4.4186 114.292 4.4186H118.063V11.3834ZM121.973 1.69078C121.82 1.51524 121.634 1.42849 121.402 1.42849H114.74C110.196 1.43858 107.588 2.9518 106.774 6.05893L103.673 17.8317C103.653 17.9225 103.637 18.0113 103.633 18.088C103.633 18.201 103.667 18.314 103.75 18.4169C103.869 18.5762 104.039 18.6489 104.281 18.6489H106.73C107.002 18.6489 107.249 18.5621 107.495 18.3765C107.743 18.1949 107.892 17.9689 107.959 17.6925L108.849 14.3735H118.063V17.743C118.063 18.0153 118.146 18.2272 118.315 18.3967C118.485 18.5662 118.697 18.6489 118.969 18.6489H121.295C121.552 18.6489 121.763 18.5662 121.943 18.3906C122.123 18.2211 122.211 18.0214 122.211 17.7692V2.32431C122.211 2.0822 122.133 1.87035 121.973 1.69078Z" fill="#00B44E"/>
<path d="M39.1722 31.5936L38.8595 31.3979L39.152 31.1719C40.2335 30.3488 40.7581 29.2572 40.7581 27.8267C40.7581 24.3544 38.4883 22.6657 33.8175 22.6657H30.0203C28.4203 22.6657 26.9172 23.1095 25.5493 23.9832C24.1954 24.8427 23.5377 25.9019 23.5377 27.2194C23.5377 27.5019 23.6103 27.7299 23.7536 27.9195C23.9331 28.1516 24.0683 28.2383 24.149 28.2646C24.2943 28.311 24.4234 28.3372 24.5465 28.3372H26.0173C26.6549 28.3372 27.123 28.0023 27.4539 27.3183C28.0128 26.2106 29.0216 25.6497 30.4581 25.6497H33.4624C34.5176 25.6497 35.2843 25.8091 35.7927 26.14C36.3375 26.485 36.6119 27.0459 36.6119 27.8066C36.6119 28.5733 36.3375 29.1342 35.7927 29.4792C35.2843 29.808 34.5176 29.9614 33.4624 29.9614H30.678C30.448 29.9614 30.2523 30.0542 30.0828 30.2358C29.9073 30.4194 29.8246 30.6312 29.8246 30.8673V31.8822C29.8246 32.1384 29.9073 32.3442 30.0869 32.5238C30.2664 32.7053 30.4722 32.786 30.7244 32.786H33.9204C34.8767 32.786 35.5829 32.9414 36.0752 33.2602C36.5957 33.5992 36.858 34.1661 36.858 34.9429C36.858 35.7237 36.5957 36.2907 36.0752 36.6296C35.5829 36.9444 34.8767 37.0977 33.9204 37.0977H30.0465C29.413 37.0977 28.8259 36.9585 28.3073 36.676C27.7727 36.3875 27.3853 35.9981 27.1553 35.5139C26.7679 34.6907 26.2655 34.2952 25.6057 34.2952H24.149C23.9331 34.2952 23.7031 34.382 23.461 34.5616C23.2391 34.727 23.1301 34.9994 23.1301 35.4009C23.1301 36.7749 23.7838 37.8705 25.1276 38.7441C26.4915 39.6339 27.9986 40.0878 29.6148 40.0878H34.3521C36.513 40.0878 38.1856 39.6762 39.3276 38.8631C40.4433 38.0702 41.0103 36.7527 41.0103 34.9429C41.0103 33.4559 40.407 32.3603 39.1722 31.5936Z" fill="#24439C"/>
<path d="M57.0685 37.0011H47.7571L49.9079 28.3939C50.1077 27.5748 50.493 26.921 51.0438 26.459C51.6047 25.9909 52.3048 25.7528 53.1341 25.7528H57.0685V37.0011ZM60.9544 23.027C60.7789 22.8515 60.567 22.7647 60.3108 22.7647H53.6284C49.1513 22.7748 46.599 24.3022 45.8323 27.4416L43.4858 37.0011H42.3237C42.0715 37.0011 41.8657 37.0878 41.6861 37.2634C41.5106 37.4328 41.4279 37.6447 41.4279 37.8949V39.0792C41.4279 39.3355 41.5106 39.5433 41.6901 39.7228C41.8717 39.9024 42.0775 39.9851 42.3297 39.9851H60.3148C60.567 39.9851 60.7789 39.9024 60.9584 39.7329C61.134 39.5634 61.2167 39.3576 61.2167 39.1054V23.6606C61.2167 23.4084 61.134 23.2026 60.9544 23.027Z" fill="#24439C"/>
<path d="M77.3213 35.976C76.4416 37.0151 75.0172 37.5457 73.0883 37.5457C71.1574 37.5457 69.727 37.0151 68.8473 35.976C67.9736 34.947 67.5318 33.4036 67.5318 31.388C67.5318 29.3764 67.9736 27.8329 68.8432 26.7979C69.7269 25.7487 71.1574 25.2181 73.0883 25.2181C75.0172 25.2181 76.4416 25.7487 77.3213 26.7979C78.1909 27.8329 78.6287 29.3764 78.6287 31.388C78.6287 33.4036 78.1909 34.947 77.3213 35.976ZM80.3376 24.5442C78.7054 23.1198 76.2661 22.3934 73.0883 22.3934C69.9025 22.3934 67.4632 23.1198 65.8289 24.5442C64.2027 25.9646 63.3795 28.2647 63.3795 31.3819C63.3795 34.4991 64.2027 36.7992 65.8289 38.2196C67.4632 39.6441 69.9025 40.3704 73.0883 40.3704C76.2661 40.3704 78.7054 39.6441 80.3376 38.2196C81.9578 36.7992 82.7749 34.4991 82.7749 31.3819C82.7749 28.2647 81.9578 25.9646 80.3376 24.5442Z" fill="#24439C"/>
<path d="M97.1685 32.3141C96.4119 32.8085 95.3002 33.0546 93.8697 33.0546H89.1001V25.7528H93.8697C95.3002 25.7528 96.4119 26.001 97.1685 26.4953C97.9554 27.0038 98.3569 27.9863 98.3569 29.4007C98.3569 30.8211 97.9554 31.7996 97.1685 32.3141ZM95.28 22.7647H85.8436C85.5975 22.7647 85.3856 22.8515 85.2161 23.0331C85.0366 23.2167 84.9539 23.4285 84.9539 23.6848V39.0792C84.9539 39.3314 85.0406 39.5433 85.2222 39.7228C85.4058 39.9024 85.6177 39.9851 85.8699 39.9851H88.1942C88.4464 39.9851 88.6582 39.9024 88.8378 39.7228C89.0133 39.5433 89.1001 39.3355 89.1001 39.0792V36.0447H95.28C97.6971 36.0447 99.5231 35.4818 100.718 34.3862C101.902 33.2907 102.503 31.6201 102.497 29.4067C102.497 24.9357 100.136 22.7647 95.28 22.7647Z" fill="#24439C"/>
<path d="M117.349 35.976C116.469 37.0151 115.043 37.5457 113.114 37.5457C111.179 37.5457 109.755 37.0151 108.875 35.976C107.999 34.947 107.557 33.4036 107.557 31.388C107.557 29.3764 107.999 27.8329 108.875 26.7979C109.317 26.2733 109.894 25.8778 110.598 25.6155C111.308 25.3533 112.147 25.2181 113.114 25.2181C115.043 25.2181 116.469 25.7487 117.349 26.7979C118.218 27.8329 118.654 29.3764 118.654 31.388C118.654 33.4036 118.218 34.947 117.349 35.976ZM120.363 24.5442C118.733 23.1198 116.294 22.3934 113.114 22.3934C109.93 22.3934 107.491 23.1198 105.855 24.5442C104.234 25.9646 103.405 28.2647 103.405 31.3819C103.405 34.4991 104.234 36.7992 105.855 38.2196C106.672 38.9359 107.691 39.4706 108.905 39.8297C110.114 40.1908 111.52 40.3704 113.114 40.3704C116.294 40.3704 118.733 39.6441 120.363 38.2196C121.983 36.7992 122.803 34.4991 122.803 31.3819C122.803 28.2647 121.983 25.9646 120.363 24.5442Z" fill="#24439C"/>
<path d="M138.116 36.5068C137.735 36.9446 137.174 37.1605 136.458 37.1605H129.128V32.3969H136.458C137.168 32.3969 137.725 32.6128 138.11 33.0486C138.492 33.4763 138.681 34.0574 138.681 34.7776C138.681 35.4979 138.492 36.079 138.116 36.5068ZM129.128 25.5894H136.002C136.587 25.5894 137.065 25.769 137.43 26.1241C137.791 26.4792 137.977 26.9735 137.977 27.5848C137.977 28.2022 137.791 28.6925 137.43 29.0416C137.065 29.3906 136.587 29.5722 136.002 29.5722H129.128V25.5894ZM140.596 30.9966L140.251 30.8171L140.55 30.575C141.609 29.7094 142.123 28.7066 142.123 27.5082C142.123 26.4227 141.821 25.5027 141.207 24.7763C140.59 24.0358 139.833 23.5113 138.954 23.2167C138.06 22.9181 137.051 22.7647 135.949 22.7647H125.896C125.643 22.7647 125.434 22.8575 125.254 23.0371C125.068 23.2227 124.98 23.4326 124.98 23.6848V39.0792C124.98 39.3314 125.068 39.5433 125.248 39.7228C125.434 39.9024 125.643 39.9851 125.896 39.9851H136.53C138.306 39.9851 139.823 39.5312 141.038 38.6374C142.242 37.7476 142.827 36.5269 142.827 34.8967C142.838 33.0808 142.107 31.8037 140.596 30.9966Z" fill="#24439C"/>
<path d="M155.518 37.0011H149.153V31.7734H155.518C156.583 31.7734 157.853 32.2254 157.853 34.3862C157.853 36.5471 156.583 37.0011 155.518 37.0011ZM160.189 30.2804C158.964 29.2938 157.397 28.7894 155.518 28.7894H149.153V23.6807C149.153 23.4285 149.066 23.2167 148.886 23.0371C148.711 22.8575 148.501 22.7647 148.249 22.7647H145.922C145.654 22.7647 145.438 22.8515 145.265 23.027C145.089 23.1965 145.006 23.4124 145.006 23.6848V39.059C145.006 39.3153 145.089 39.5271 145.265 39.7168C145.434 39.8964 145.63 39.9851 145.86 39.9851H155.518C157.391 39.9851 158.96 39.4848 160.185 38.4981C161.387 37.5256 162.001 36.1416 162.001 34.3923C162.001 32.643 161.393 31.2589 160.189 30.2804Z" fill="#24439C"/>
<path d="M175.852 30.6214H169.468C167.961 30.6214 167.162 29.778 167.162 28.1881C167.162 26.5922 167.961 25.7528 169.468 25.7528H175.852V30.6214ZM179.748 23.021C179.578 22.8515 179.383 22.7647 179.145 22.7647H169.462C167.606 22.7647 166.046 23.253 164.828 24.2114C163.607 25.1617 163.016 26.4852 163.016 28.2385C163.006 30.5649 164.101 32.1648 166.355 33.1313L166.627 33.2503L163.052 39.1983C162.969 39.3314 162.929 39.4606 162.929 39.5776C162.929 39.6442 162.939 39.7027 162.969 39.7632V39.7733C163.032 39.9286 163.125 39.9851 163.288 39.9851H166.407C167.091 39.9851 167.6 39.6502 167.975 38.9662L171.028 33.6054H175.852V39.0631C175.852 39.3213 175.941 39.5372 176.12 39.7168C176.296 39.8964 176.506 39.9851 176.758 39.9851H179.094C179.35 39.9851 179.562 39.9024 179.738 39.7329C179.917 39.5634 180 39.3576 180 39.1054V23.6606C180 23.4084 179.917 23.1965 179.748 23.021Z" fill="#24439C"/>
<path fill-rule="evenodd" clip-rule="evenodd" d="M9.01868 38.4393C9.90441 38.1366 10.7559 37.8239 11.5488 37.4103C12.3417 37.0027 13.0701 36.5023 13.7096 35.9031C14.3512 35.3059 14.9021 34.6118 15.3722 33.8512C15.8463 33.0926 16.2397 32.2714 16.6312 31.422C16.5505 32.3541 16.3023 33.2741 15.9048 34.1377C15.5073 35.0032 14.9444 35.8083 14.2362 36.466C13.5301 37.1258 12.6867 37.6362 11.7909 37.9631C10.8951 38.292 9.95284 38.4534 9.01868 38.4393Z" fill="white"/>
<path fill-rule="evenodd" clip-rule="evenodd" d="M13.7096 35.9031C13.0701 36.5023 12.3417 37.0027 11.5488 37.4103C10.7559 37.8239 9.90441 38.1366 9.01868 38.4393C9.95284 38.4534 10.8951 38.292 11.7909 37.9631C12.6867 37.6362 13.5301 37.1258 14.2362 36.466C14.9444 35.8083 15.5073 35.0032 15.9048 34.1377C16.3023 33.2741 16.5505 32.3541 16.6312 31.422C16.2397 32.2714 15.8463 33.0926 15.3722 33.8512C14.9021 34.6118 14.3512 35.3059 13.7096 35.9031Z" fill="#FEFEFE"/>
<path fill-rule="evenodd" clip-rule="evenodd" d="M10.6127 15.0751C10.6127 15.9266 11.3027 16.6186 12.1541 16.6186C13.0056 16.6186 13.6976 15.9266 13.6976 15.0751C13.6976 14.2237 13.0056 13.5316 12.1541 13.5316C11.3027 13.5316 10.6127 14.2237 10.6127 15.0751Z" fill="#0A90C8"/>
</svg>
