<?xml version="1.0" encoding="UTF-8"?>
<!DOCTYPE svg PUBLIC "-//W3C//DTD SVG 1.1//EN" "http://www.w3.org/Graphics/SVG/1.1/DTD/svg11.dtd">
<!-- Creator: CorelDRAW -->
<svg xmlns="http://www.w3.org/2000/svg" xml:space="preserve" width="171.845mm" height="32.8125mm" version="1.1" style="shape-rendering:geometricPrecision; text-rendering:geometricPrecision; image-rendering:optimizeQuality; fill-rule:evenodd; clip-rule:evenodd"
viewBox="0 0 16067.58 3067.99"
 xmlns:xlink="http://www.w3.org/1999/xlink"
 xmlns:xodm="http://www.corel.com/coreldraw/odm/2003">
 <defs>
  <style type="text/css">
   <![CDATA[
    .fil0 {fill:#00B54E}
    .fil1 {fill:#24439C}
   ]]>
  </style>
 </defs>
 <g id="Слой_x0020_1">
  <metadata id="CorelCorpID_0Corel-Layer"/>
  <rect class="fil0" x="415.27" y="-0" width="3068" height="3067.99" rx="1077.14" ry="1077.13"/>
  <g id="_1861290831184">
   <g>
    <path class="fil0" d="M8884.06 2532.25c21.57,0 38.38,-7.07 53.63,-22.31 15.25,-15.25 22.32,-32.06 22.32,-53.63l0 -1405.34 885.8 1374.65c19.83,31.4 45.86,56.77 76.35,77.36 23.7,16 51.68,29.27 80.84,29.27l468.39 0c21.57,0 38.38,-7.07 53.63,-22.31 15.24,-15.25 22.31,-32.06 22.31,-53.63l0 -1757.91c0,-21.62 -5.88,-39.21 -21.55,-54.31 -15.56,-14.99 -32.8,-21.64 -54.39,-21.64l-242.87 0c-21.59,0 -38.83,6.65 -54.39,21.64 -15.03,14.47 -21.55,30.58 -21.55,51.42l0 1508.08 -958.03 -1474.41c-19.73,-31.22 -44.83,-57.04 -74.64,-78.22 -19.87,-14.12 -45.92,-28.5 -71.03,-28.5l-416.35 0c-20.83,0 -36.96,6.54 -51.43,21.56 -14.98,15.56 -21.63,32.79 -21.63,54.38l0 1757.91c0,21.57 7.07,38.38 22.31,53.63 15.25,15.24 32.06,22.31 53.63,22.31l248.65 0zm1940.85 -954.89c0,272.88 54.32,570.97 269.65,759.39 217.76,190.54 529.9,238.88 809.58,238.88 279.7,0 591.82,-48.34 809.58,-238.88 215.33,-188.42 269.65,-486.5 269.65,-759.39 0,-272.9 -54.31,-570.98 -269.65,-759.39 -217.76,-190.54 -529.89,-238.87 -809.58,-238.87 -279.68,0 -591.82,48.33 -809.58,238.87 -215.33,188.4 -269.65,486.5 -269.65,759.39zm1583.95 -541.39c124.65,147.32 156.61,354.43 156.61,541.39 0,186.95 -31.95,394.07 -156.61,541.4 -125.19,147.96 -319.14,189.33 -504.73,189.33 -185.58,0 -379.53,-41.37 -504.72,-189.33 -124.66,-147.33 -156.62,-354.44 -156.62,-541.4 0,-186.95 31.97,-394.07 156.62,-541.39 125.2,-147.96 319.13,-189.35 504.72,-189.35 185.6,0 379.53,41.38 504.73,189.35zm1994.92 -413.52c-63.95,0 -94.89,33.33 -113.15,92.72l-396.4 1289.17 -429.18 -1287.48c-9.66,-27.61 -25.45,-50.86 -48.48,-69.58 -19.27,-15.65 -40.24,-24.82 -65.22,-24.82l-309.37 0c-15.14,0 -26.03,4.14 -35.83,15.79 -7.34,8.74 -7.26,15.01 -3.12,26.08l630.46 1761.19c25.94,72.43 71.34,106.74 148.67,106.74l205.28 0c77.18,0 124.49,-30.43 148,-104.72l398.46 -1259 398.45 1259c23.52,74.3 70.82,104.72 148,104.72l205.28 0c77.32,0 122.75,-34.31 148.68,-106.74l630.44 -1761.19c4.14,-11.07 4.21,-17.33 -3.13,-26.08 -9.78,-11.66 -20.67,-15.79 -35.82,-15.79l-309.36 0c-24.96,0 -45.94,9.16 -65.23,24.82 -23.03,18.71 -38.82,41.95 -48.48,69.57l-429.16 1287.48 -396.41 -1289.17c-18.25,-59.38 -49.2,-92.72 -113.16,-92.72l-260.22 0z"/>
   </g>
   <g>
    <path class="fil1" d="M3703.21 2459.19c0,20.83 6.53,36.96 21.55,51.43 15.56,14.98 32.8,21.63 54.39,21.63l263.11 0c22.28,0 39.8,-7.6 55.8,-23.05 15.49,-14.92 23.03,-31.35 23.03,-52.89l0 -1757.91c0,-21.56 -7.07,-38.36 -22.31,-53.61 -15.92,-15.92 -34.09,-22.33 -56.52,-22.33l-263.11 0c-21.57,0 -38.38,7.08 -53.63,22.33 -15.24,15.25 -22.31,32.05 -22.31,53.61l0 1760.8zm713.58 -1836.74c-21.56,0 -39.68,5.52 -55.06,20.88 -15.37,15.38 -20.88,33.51 -20.88,55.06l0 133.01c0,21.55 5.51,39.68 20.88,55.06 15.38,15.36 33.5,20.88 55.06,20.88l687.36 0 0 1551.85c0,20.83 6.54,36.96 21.56,51.43 15.56,15 32.8,21.63 54.39,21.63l266 0c21.59,0 38.82,-6.65 54.38,-21.63 15.03,-14.46 21.56,-30.59 21.56,-51.43l0 -1551.85 687.36 0c21.57,0 39.7,-5.52 55.07,-20.88 15.37,-15.37 20.87,-33.52 20.87,-55.06l0 -133.01c0,-21.54 -5.5,-39.69 -20.87,-55.06 -15.37,-15.36 -33.5,-20.88 -55.07,-20.88l-1792.61 0zm1687.4 1851.34c-3.96,14.95 -5.35,30.31 4.53,43.14 9.64,12.54 23.32,15.32 38.63,15.32l277.57 0c26.17,0 48.83,-10.11 69.42,-25.85 21.85,-16.7 36.22,-37.21 43.03,-64.4l106.88 -398.38 1104.11 0 0 412.69c0,21.57 5.51,39.69 20.88,55.07 15.36,15.37 33.51,20.87 55.06,20.87l266.01 0c21.59,0 38.82,-6.65 54.38,-21.63 15.03,-14.46 21.56,-30.59 21.56,-51.43l0 -1763.69c0,-20.78 -6.49,-37.64 -20.3,-53.16 -12.24,-13.78 -25.64,-19.89 -44.09,-19.89l-760.41 0c-382.34,0 -772.59,94.68 -881.62,506.88l-355.64 1344.46zm757.2 -1241.13c26.28,-95.94 76.93,-176.91 156.48,-237.13 79.71,-60.36 171.72,-88.19 271.53,-88.19l458.95 0 0 851.39 -1031.04 0 144.08 -526.07z"/>
   </g>
  </g>
  <g id="_1861290832912">
   <path class="fil1" d="M2050.48 2488.89c75.99,0 119.97,-45.07 150.58,-111.42l812.45 -1760.78c4.16,-9.03 3.15,-12.57 -3.31,-20.19 -10.33,-12.21 -21.4,-17.4 -37.4,-17.4l-309.37 0c-60.4,0 -93.29,47.88 -115.51,99l-598.66 1333.5 -598.65 -1333.5c-22.23,-51.12 -55.1,-99 -115.5,-99l-309.37 0c-16,0 -27.07,5.18 -37.4,17.4 -6.46,7.62 -7.48,11.15 -3.32,20.19l812.46 1760.78c30.61,66.36 74.59,111.42 150.57,111.42l202.4 0z"/>
  </g>
  <path class="fil1" d="M1482.64 1394.07c-359.73,48.28 -663.28,-90.63 -862.5,-338.9 -80.85,-100.77 -125.54,-237.02 -179.33,-358.96 -16.26,-36.87 212.25,437.58 664.17,577.99 -97.42,-75.97 -116.17,-69.84 -217,-281.82 -57.09,-105.93 -100.19,-289.58 -183.75,-387.32 -119.2,-151.37 -492.21,-254.05 -704.24,-254.9 36.65,46.76 75.34,88.16 111.52,133.31 241.35,301.22 94.87,682.2 599.35,879.56 280.49,109.72 812.12,21 771.77,31.03z"/>
 </g>
</svg>
