<svg xmlns="http://www.w3.org/2000/svg" viewBox="0 0 184.11 256"><defs><style>.cls-1{fill:#24439c;}</style></defs><g id="Слой_2" data-name="Слой 2"><g id="Слой_1-2" data-name="Слой 1"><path class="cls-1" d="M71,256c-1-1.64-3.08-3.39-1.42-5.23a7.68,7.68,0,0,1,5.18-2c20.49-.14,41-.09,61.48-.09h6.18c.13-2.27.29-3.89.29-5.51,0-8.66,0-17.32,0-26,0-1.33,0-2.66.12-4,.14-2.17,1.35-3.43,3.51-3.41a3.29,3.29,0,0,1,3.5,3.47c.12,4.67.08,9.33.09,14,0,7,0,13.9,0,21.15,7.16,0,13.8.27,20.4-.09,5.25-.28,7.29-3.2,6.39-8.5-1.12-6.55-2.49-13.07-3.8-19.59-2.25-11.26-4.66-22.49-6.77-33.77-1.54-8.22-6.09-13.38-14.16-15.65-8.62-2.42-17.18-5.05-26.29-7.74-2,5.7-4.07,11.1-5.92,16.56-1.43,4.23-3.42,7.53-8.59,7.62-1.13,0-2.34,1.14-3.33,2-3.2,2.67-6.23,5.54-9.48,8.13-4.33,3.45-8.4,3.44-12.74,0-2.49-1.95-4.77-4.16-7.18-6.22S74,187,70.36,186.75c-2.81-.17-4.44-2.62-5.39-5.31-2.09-5.95-4.25-11.87-6.49-18.07-1.44.26-2.73.37-3.94.72-7.66,2.25-15.3,4.58-23,6.81s-12.14,7.16-13.66,14.94Q12.77,212,7.57,238.24a17,17,0,0,0-.46,3.94c.18,3.6,1.84,5.82,5.42,6,7,.31,13.92.09,21.24.09.11-1.49.31-2.93.31-4.36,0-9.17,0-18.33,0-27.49,0-1.33-.29-2.94.34-3.91A5.69,5.69,0,0,1,38.09,210c1-.08,2.48,1.44,3,2.58s.39,2.94.39,4.43c0,8.66,0,17.33,0,26v5.7c4.09,0,7.69-.06,11.28,0,6,.13,7.09,2,4.18,7.32H11c-.71-.37-1.4-.8-2.15-1.1-6-2.42-9.23-6.53-8.77-13,.44-6.1,1.79-12.15,3-18.18,2.53-13.06,5.27-26.08,7.8-39.14,2.11-10.92,8.5-17.71,19.13-20.74,7-2,14-4.45,21.06-6.15,6.68-1.6,12.31-4.87,17.77-9.22V142c-16.65-9.93-25.5-24.71-26.39-44.22-1.88-.77-3.59-1.35-5.19-2.15-9-4.47-11.44-13.93-6.05-22.24a12.65,12.65,0,0,0,1.75-5.92c.47-8,.66-15.94,1-23.91,0-1,.11-2.26.71-2.82,1-.91,2.51-2,3.63-1.81A4.29,4.29,0,0,1,41,41.77c.37,1.71-.28,3.62-.3,5.44,0,6.46,0,12.92,0,20,1-.64,1.83-1.21,2.71-1.71,2.09-1.18,4.13-3.16,6.32-3.34a198.57,198.57,0,0,0,56.6-13.48c7.83-3.07,14.08-2.26,20.14,3.3,2.81,2.58,6.14,4.6,9,7.14A80.84,80.84,0,0,1,141,65.34a33.48,33.48,0,0,0,2.58,2.24c.18-2,.39-3.26.39-4.5,0-7.49-.13-15,0-22.48.34-14.37-11.55-24.79-24.77-22.75a9.73,9.73,0,0,1-7.41-2C91,1.53,64.59,5.79,49.13,25.88c-.2.26-.38.54-.59.8-2.33,2.87-4.43,3.58-6.24,1.92-2.29-2.1-1.16-4.15.29-6.18A52.22,52.22,0,0,1,75.75,1.05,31.64,31.64,0,0,0,79,0H92c3.67,1,7.33,2,11,3.09a10,10,0,0,1,2.31.92c7,4.09,14.51,6.11,22.74,7.14,13.33,1.68,22.66,13.42,23,26.88.24,9.82,0,19.66.16,29.48A9.87,9.87,0,0,0,152.67,73c6.72,8.65,2.26,19.27-6.75,23-1.21.5-2.45,1-4,1.57-.92,19.44-9.35,34.63-26.39,44.34-1.72,4.6.1,7.22,3.83,9.59a44,44,0,0,0,12.13,5.61c7.7,2.11,15.31,4.53,23,6.78,10.2,3,16.49,9.6,18.57,20.09,3.55,18,7.14,35.9,10.61,53.87,1.72,8.93-1.1,13.55-10.67,18.11ZM50.13,69.32c-.13,1.47-.33,2.6-.33,3.73,0,8.33,0,16.66,0,25,0,21.91,18.85,44.59,46.36,42.08,20.11-1.84,37-18.59,37.85-38.69.45-10.15.16-20.32.29-30.49a6.58,6.58,0,0,0-3-5.91c-3.78-2.72-7.53-5.53-11-8.58-3-2.6-5.91-3-9.62-1.54A214.56,214.56,0,0,1,50.13,69.32Zm48,103.22c3.14-7.55,6.19-14.73,9.06-22,.53-1.34.31-3,.49-5.21a52.81,52.81,0,0,1-30.79.2c-.79,4.36,5.49,21.17,9.81,27Zm5,10.91c-5.16-5.1-17.65-4.95-22.17.12,2.84,2.51,5.71,5,8.53,7.53,1.4,1.27,2.89,1.74,4.43.44C97,188.9,100.06,186.16,103.13,183.45ZM65.1,160c2.38,6.65,4.7,13.1,7.2,20.08l6.65-5.2-8-18.77ZM113,156c-2.75,6.6-5.33,12.78-7.94,19.07l6.73,4.87c2.49-7,4.76-13.33,7.12-20ZM142,74.9V89.13c4.27-1.24,6.3-3.36,6.52-6.61S146.9,76.85,142,74.9ZM42.09,75c-4.88,1.77-6.66,4-6.45,7.54s2.26,5.55,6.45,6.27Z"/></g></g></svg>