<svg xmlns="http://www.w3.org/2000/svg" viewBox="0 0 169.57 256"><defs><style>.cls-1{fill:#24439c;}</style></defs><g id="Слой_2" data-name="Слой 2"><g id="Слой_1-2" data-name="Слой 1"><path class="cls-1" d="M144.75,0c2.3,2,3.08,4.38,3.07,7.45,0,5.48,1.12,6.67,6.45,8.35,9.09,2.87,15,10.25,15.14,20.07.23,21,.19,41.94,0,62.91A33.79,33.79,0,0,1,161.79,120a10.64,10.64,0,0,0-2.31,7.31c.05,33.12,0,66.24.05,99.36,0,8.17-2.26,15.36-8.07,21.33-4.11,4.21-9.38,6.1-14.71,8h-62c-1-.55-1.93-1.16-2.94-1.65-6-2.95-9.6-7.69-10-14.41-.28-4.66-2.56-7.07-6.87-8.6-24.57-8.74-38.4-26.28-40.62-52.17-1.45-17,4.59-32,15-45.36,1.42-1.81,2.94-3.55,4.12-5-1.66-3.25-3.75-6-4.55-9.11-2.21-8.55,2.95-16.37,12.25-18.62,8.07-2,16.26-3.4,24.4-5.09,1-.2,1.89-.47,3.25-.81C68.33,94,68,92.94,67.52,92c-6.93-14.51-4.06-29.65,8-40.39q13.23-11.8,26.88-23.13c4.73-3.92,7.15-8.6,6.81-14.74-.1-1.83.11-3.67,0-5.49A10.77,10.77,0,0,1,111.75,0Zm4.75,131.42c-.34-.08-.52-.19-.66-.16a18.65,18.65,0,0,0-2.36.64,40.09,40.09,0,0,1-20.08,2.3c-18.13-2.48-36.3-4.68-54.46-6.89a23.73,23.73,0,0,0-6.94.12c-5.73,1-11.41,2.27-17.09,3.55a9,9,0,0,0-4,1.77c-13.72,12.67-21.5,28.25-19.67,47,2.06,21.19,13.88,35.52,34.21,42.38,7.79,2.63,12.11,7.75,13.07,15.88.73,6.08,2.93,8,9.16,8q25.49.06,51,0a20.46,20.46,0,0,0,5.41-.67c8.09-2.28,12.65-8.78,12.66-18.14q.06-46,0-91.92C149.7,134,149.57,132.68,149.5,131.42ZM119.17,10.26a24.26,24.26,0,0,0-.22,3c.57,9.79-3.49,17.24-11,23.36-8.64,7-17,14.42-25.39,21.79C71.85,67.82,70.73,80.9,79.3,92.29a5.61,5.61,0,0,0,5.43,2.55C96,94.13,107.34,93.62,118.64,93c5.88-.33,8.23-2.87,8.34-8.89.06-3.49-.09-7,.06-10.49.17-3.79,1.92-5.66,4.93-5.67s4.69,1.86,4.8,5.67c.1,3.5-.2,7,.07,10.49.7,9-5.62,18.23-17.71,18.74-15.14.64-30.31,1-45.38,2.37-10.21,1-20.26,3.59-30.38,5.49a6.64,6.64,0,0,0-1.85.72c-2.89,1.55-3.9,3.85-3,6.59a5.23,5.23,0,0,0,6.3,3.52c3.44-.62,6.83-1.49,10.26-2.13,6.35-1.19,12.54-2.67,19.24-1.67,15.95,2.39,32,4.22,48,6.15,4.28.52,8.68,1.25,12.9.78,14.38-1.61,24.26-12.93,24.39-27.59.13-15.15,0-30.3,0-45.46,0-4.83.08-9.66,0-14.49-.15-7.16-3.54-11.23-10.52-12.26a9.06,9.06,0,0,1-6.86-4.43c-1.91-3.25-3.39-6.74-5.23-10.49-4.81,0-10,0-15.12,0C121.15,10,120.35,10.12,119.17,10.26Z"/><path class="cls-1" d="M27.14,45.87c3.65-1.46,6.6-3.35,9.75-3.78,12.62-1.72,22,11,17.15,23.2a15.25,15.25,0,0,1-3.27,5.54C45,76.11,39.15,81.24,33.1,86.16a8,8,0,0,1-10.62,0c-6.06-4.9-12.23-9.76-17.68-15.3C.25,66.28-1.06,60.19.84,53.72a16.12,16.12,0,0,1,24.05-9.4C25.74,44.84,26.53,45.45,27.14,45.87Zm.55,33c5.31-4.71,9.83-8.59,14.17-12.67a13.57,13.57,0,0,0,3-4.51,7.13,7.13,0,0,0-2.38-8.84c-2.74-2-5.28-1.55-8.43,1.33-6,5.5-6.63,5.5-12.53,0-.37-.33-.71-.7-1.11-1-3.41-2.61-7.61-1.66-9.63,2.19C8.87,59,10,62.4,12.53,65,17.19,69.64,22.22,73.92,27.69,78.9Z"/><path class="cls-1" d="M91.89,154.24l4.1-3.62c15.05-13.29,36-3.14,39.76,13.82a27.29,27.29,0,0,1-5.55,23.94,124.39,124.39,0,0,1-32.24,28,10.86,10.86,0,0,1-12.23,0c-12.25-7.6-23.33-16.65-32.31-27.93-8.17-10.25-8.49-23.12-1.67-33,8.58-12.39,24.7-14.53,36.15-4.8C89.16,151.76,90.36,152.88,91.89,154.24Zm34.88,16.18c-.43-6.48-3.3-11.78-9.68-14.76-5.84-2.73-10.64-1.57-16.25,3.77-1.57,1.49-3,3.15-4.57,4.61-3.21,2.94-6,2.87-9.14-.19-1.67-1.63-3.19-3.41-4.85-5-9.82-9.57-21.54-2.33-24.48,6.24-2.42,7-.37,13.24,4.21,18.56a134.6,134.6,0,0,0,26.67,23.21,5,5,0,0,0,6.36,0,139.68,139.68,0,0,0,26.3-22.89A21,21,0,0,0,126.77,170.42Z"/></g></g></svg>