<svg xmlns="http://www.w3.org/2000/svg" viewBox="0 0 256 187.3"><defs><style>.cls-1{fill:#24439c;}</style></defs><g id="Слой_2" data-name="Слой 2"><g id="Слой_1-2" data-name="Слой 1"><path class="cls-1" d="M0,44.78c2.3-.68,4.56-1.69,6.9-2a93.72,93.72,0,0,1,9.83-.08c.14-1.73.34-3.15.37-4.58.29-12.07,7.33-18,19.14-16.14l1.83.26c.23-2.34.4-4.61.68-6.86,1.08-9,8-15.42,16.7-15.43A16.6,16.6,0,0,1,72.16,15.9c.42,7,.17,14,.25,21,0,1.8.15,3.59.24,5.62h17c.11-5.57.28-11.4,5.92-14.77,5.34-3.2,10.46-2.46,15.36,1.05,5.69-4,11.27-4.16,17-.05,5.63-3.74,11.39-4.36,17.06.07,5.09-3.41,10.23-4.38,15.54-1.07s6.09,8.75,5.73,14.7h17.16c.08-2,.21-3.75.23-5.55.08-7-.17-14,.25-21A16.6,16.6,0,0,1,200.55,0c8.66,0,15.63,6.44,16.7,15.43.25,2.13.37,4.27.58,6.83,6.17-1.22,12-1.25,16.71,3.55,4.54,4.6,4.48,10.46,4.37,16.94,3.48,0,6.59.11,9.69,0,2.74-.13,5.24.27,7.4,2.07v29c-1.56,2.3-3.76,3-6.47,2.92-3.31-.14-6.63,0-10.37,0-.1,1.9-.23,3.5-.27,5.1-.31,11.52-8,17.67-19.23,15.44-.46-.09-.93-.08-1.78-.16-.21,2.36-.36,4.64-.64,6.9-1.09,9.06-8,15.28-16.81,15.23-9-.06-16.05-6.58-16.61-15.93-.4-6.64-.17-13.32-.22-20,0-2,0-3.94,0-6.25h-13c0,3.24-.17,6.51,0,9.75.55,8.56-1.59,16.19-7.54,22.52-4.23,4.49-5.57,9.61-5.45,15.83.38,18.82.14,37.65.14,56.48v5.7H149.6c-.08-1.75-.23-3.53-.23-5.31,0-20.82,0-41.65-.07-62.47a15.51,15.51,0,0,1,3.3-10.12c10.31-13.5,10.24-13.56,9.53-30.57a17.2,17.2,0,0,0-.3-1.78c-1.23-.12-2.5-.35-3.77-.36q-15,0-30,0c-1.44,0-3.27,0-4.24.81-3.79,3.15-8.14,3.48-12.72,3.32-1.25,0-2.51.17-4.85.34,5.23,2.76,10,4.39,13.59,7.44s6.32,7.26,8.62,11.4a24.59,24.59,0,0,1,3.29,14.6h-7.34c-1.11-3.66-1.91-7.23-3.26-10.59-2.55-6.33-6.83-11-13.75-12.68-.16,0-.3-.14-.46-.19-9.35-3-9-2-8.72-13.62.08-3.48,1.47-4.68,5-4.84,3-.13,6,0,9,0a19.15,19.15,0,0,0,3.48-.21,4.1,4.1,0,0,0,3.62-4.15c0-2.37-1.47-3.59-3.53-4.28a4.85,4.85,0,0,0-1.48-.19H90.09a35.22,35.22,0,0,0-.53,4.06c0,7.17,0,14.33,0,21.49a15.4,15.4,0,0,0,5,12A128,128,0,0,1,104,111a9.75,9.75,0,0,1,2.5,5.68c.16,23,.09,46,0,69a7.31,7.31,0,0,1-.47,1.68H98.17V182c0-20-.1-40,.09-60,0-3.84-1-6.67-3.9-9.1-2.16-1.81-4-4-6-6a23,23,0,0,1-7.21-17.48c0-4,0-8,0-12.36H72.65c-.08,1.66-.22,3.43-.24,5.19-.08,7,.2,14-.23,21-.66,10.54-9.26,17.2-19.59,15.63A16.34,16.34,0,0,1,39,105.43c-.42-2.61-.52-5.28-.81-8.45-6.1,1.51-11.85,1.22-16.6-3.39S17.05,83.14,17,76.66c-3.68,0-7.12-.1-10.56,0-2.71.1-4.91-.62-6.47-2.92Zm46.89,15q0,14.5,0,29c0,4.66-.15,9.34.09,14a8.31,8.31,0,0,0,8.49,8.09A8.56,8.56,0,0,0,64,102.77c.09-1,0-2,0-3q0-40,0-80a26.66,26.66,0,0,0-.12-4,8.39,8.39,0,0,0-9.23-7.24C50,8.9,47,12.29,46.92,17.78,46.84,31.78,46.89,45.78,46.89,59.78Zm162.22-.5q0-19.5,0-39a32,32,0,0,0-.12-4.49,8.57,8.57,0,0,0-16.86-.5,21.23,21.23,0,0,0-.2,4q0,40.5,0,81a22.93,22.93,0,0,0,.09,3,8.57,8.57,0,0,0,8.51,7.59,8.46,8.46,0,0,0,8.48-7.59,31.19,31.19,0,0,0,.1-4Q209.13,79.27,209.11,59.28Zm-170.64.54c0-7,0-14,0-20.93,0-6.08-2.41-9.28-6.67-9.14s-6.23,3.13-6.24,9q-.06,20.93,0,41.86a18.05,18.05,0,0,0,.31,4,6.56,6.56,0,0,0,6.1,5,6.52,6.52,0,0,0,6.15-4.91,19.39,19.39,0,0,0,.34-4.45C38.49,73.44,38.47,66.63,38.47,59.82Zm192-.07c0-7,0-14,0-20.92,0-5.95-2.12-8.92-6.23-9.08s-6.67,3-6.68,9.11q-.06,20.94,0,41.86a16.83,16.83,0,0,0,.33,4,6.26,6.26,0,0,0,12.25,0,20.66,20.66,0,0,0,.32-4.45C230.48,73.38,230.47,66.57,230.47,59.75Zm-63.64-8.54c-4,12.47-10.36,15.23-21.13,10.14-3.65.9-6.66,2.26-9.64,2.19s-5.86-1.56-9.61-2.68c.7,2.78,1.27,5,1.79,7.08h55V51.21Zm-94.07-.28V67.84h8.35c0-1.53,0-2.67,0-3.81.1-7.77.11-7.77,8-8.7.26,0,.48-.39.76-.63.45-2.39-.22-3.83-3-3.79C82.36,51,77.87,50.93,72.76,50.93ZM98.09,44.4c0,2.32-.17,4.65,0,7a4.1,4.1,0,0,0,4.33,4,3.81,3.81,0,0,0,4.09-3.61,136.72,136.72,0,0,0,0-13.88,3.92,3.92,0,0,0-4-3.74,4.12,4.12,0,0,0-4.42,3.86A53.47,53.47,0,0,0,98.09,44.4Zm25.74.65h0a64.4,64.4,0,0,0-.05-6.95,4.14,4.14,0,0,0-4.3-4,4.1,4.1,0,0,0-4.25,4.07c-.21,4.3-.19,8.62,0,12.92a4.18,4.18,0,0,0,4.09,4.24c2.33.23,4.2-1.46,4.54-4.3A51.48,51.48,0,0,0,123.83,45.05Zm8.33-.59h-.07c0,1.83,0,3.65,0,5.47a6.71,6.71,0,0,0,.06,1c.47,2.82,2.19,4.59,4.5,4.39a4.16,4.16,0,0,0,4.16-4.16c.19-4.3.19-8.62,0-12.92a4.25,4.25,0,0,0-4.17-4.19c-2.21-.22-4.15,1.68-4.45,4.45A53.85,53.85,0,0,0,132.16,44.46Zm25.82.67h0c0-2.15.09-4.31,0-6.46-.14-2.66-1.61-4.52-4.29-4.58s-4.27,1.87-4.39,4.47a119.64,119.64,0,0,0,0,12.42c.18,2.89,2.13,4.56,4.48,4.32,2.76-.27,4.05-2,4.18-4.7C158.05,48.78,158,47,158,45.13Zm-149.36,6c-.19,6-.67,11.42.28,16.82h7.75V51.09ZM239.07,67.82h8.14V51.32h-8.14Z"/></g></g></svg>