<svg xmlns="http://www.w3.org/2000/svg" viewBox="0 0 193.93 256"><defs><style>.cls-1{fill:#24439c;}</style></defs><g id="Слой_2" data-name="Слой 2"><g id="Слой_1-2" data-name="Слой 1"><path class="cls-1" d="M193.93,136.64c-.66,24.42-9.29,51.94-27.8,76-9,11.72-20.34,20.43-34.93,24.48q-21,5.82-37.64-7.81c-4.25-3.46-8.07-7.46-12-11.26s-7.72-7.84-11.85-11.46a32,32,0,0,0-7.82-5c-7.62-3.47-14.27-1.91-18.66,5.16a49.69,49.69,0,0,0-6.54,15.55C34.82,231,34.05,240,33.21,248.93c-.57,6.07-1.09,6.95-7.19,7-6.78.06-13.57.11-20.35,0-4.27-.09-5.41-1.13-5.53-5.1-.57-17.68.42-35.21,6.69-52a75.6,75.6,0,0,1,6.41-13.32C22.8,170,36.77,162.13,55,162.91q13,.56,18.12-10.6a69.53,69.53,0,0,0,5.6-17.67c2-12.63,1.25-25.21-3.57-37.29A28.8,28.8,0,0,0,60.84,81.49c-20.63-10.44-32-27.95-36.25-50.21-1.5-7.86-1.79-16-2.14-24-.27-6.11,1-7.13,6.92-7.19C36.15,0,42.94,0,49.72.08c4.75.09,5.55,1.15,6,5.88.79,7.45,1.37,15,2.84,22.27a35.56,35.56,0,0,0,5.08,11.45c4.35,6.89,10.17,8.56,18.07,6.43C90.38,43.79,99,41,107.84,39.88c28.91-3.54,52.2,6.72,68.92,30.66C189.35,88.58,193.92,109.13,193.93,136.64ZM24.41,247.25c.4-4.22.69-8,1.13-11.85,1.25-11,3.19-21.79,9-31.43,7.7-12.78,20.51-16.15,33.59-8.9a38.16,38.16,0,0,1,7.18,5c4.6,4.2,8.87,8.75,13.42,13,4.27,4,8.44,8.19,13.15,11.61,7,5.06,14.86,6.6,23.48,4.93,14.09-2.73,24.93-10.55,33.4-21.58,20.4-26.59,29-56.83,25.93-90.16A88.21,88.21,0,0,0,170.57,76.7c-12.83-19.34-30.84-29.15-54.13-29-11.14.07-21.67,3.09-32.15,6.53-11.4,3.74-21.07.24-27.78-9.65a51.58,51.58,0,0,1-7.85-20.92c-.8-4.82-1.24-9.69-1.87-14.74H30.41c1,7.72,1.36,15.05,2.88,22.14,4,18.64,13.45,33.76,30.89,42.46C74.87,78.82,81,87.25,84.61,98.07c3.8,11.51,4.43,23.38,3.12,35.32-.94,8.6-3.12,17-7.71,24.44C74.41,167,66.64,172,55.46,171.39a42,42,0,0,0-12,1.22c-13.24,3.13-21.3,12.31-26.7,24.14-5.17,11.31-7.27,23.39-7.89,35.73-.25,4.83,0,9.69,0,14.77Z"/><path class="cls-1" d="M164.33,154.44c-.73,22.41-16.67,43.67-36.63,49.67a42.08,42.08,0,0,1-5.34,1.2c-2.72.45-4.84-.54-5.37-3.35-.48-2.54,1-4.13,3.45-4.79l1.59-.44A45.41,45.41,0,0,0,155.57,157c.15-1.46.21-2.92.36-4.38.27-2.7,1.56-4.7,4.45-4.52s3.93,2.32,3.94,5C164.33,153.89,164.33,154.62,164.33,154.44Z"/></g></g></svg>