<svg xmlns="http://www.w3.org/2000/svg" viewBox="0 0 256 251.53"><defs><style>.cls-1{fill:#24439c;}</style></defs><g id="Слой_2" data-name="Слой 2"><g id="Слой_1-2" data-name="Слой 1"><path class="cls-1" d="M0,212.69c1-3.29,2-6.61,3.09-9.88,5-14.76,13.06-28,20.57-41.55,1.21-2.18,2.48-4.33,3.73-6.49,1.16-2,2.84-3,5-1.9s2.3,3.19,1.33,5.14c-1.47,3-3.25,5.81-4.8,8.75-5.37,10.15-11.17,20.11-15.85,30.57a68.82,68.82,0,0,0-5.45,20.1c-1.75,16,10.94,28,27,26.38,6.17-.62,10.9-3.87,14.85-8.38,6.64-7.59,10.33-16.74,12.66-26.32C67,189.05,71.46,168.9,76,148.76c1.78-7.95,3.16-16,4.84-24.56L59.4,115.78c-3.79,6.11-7.45,12-11.09,17.91-1.66,2.69-3.24,5.43-4.89,8.13-1.29,2.1-2.79,4-5.62,2.5-2-1-2.29-3.17-.64-6.1,2.11-3.74,4.39-7.4,6.76-11.37-7.25-4.52-9.93-10.79-7.88-18.7C28.27,101.07,25,95.18,32.11,84c-3-8-4.43-12.58,3.54-21.49-1.07-7.84,1.26-14,9-17.49a3.63,3.63,0,0,0,1.93-2c1.85-8.16,7.35-11.88,15.37-12.68l.93-4c1.77-7.56,6.44-12.33,14-13.85,3.25-.66,5.73-1.77,7.88-4.52,4.1-5.24,9.86-6.7,16.15-5A9.5,9.5,0,0,0,109,2a13,13,0,0,1,13.8,0,8.45,8.45,0,0,0,6.67,1c1.58-.4,3.32-.09,5-.27,2.58-.28,5.33-.24,7.68-1.16,4.75-1.88,9.2-1.69,13.36,1a9.36,9.36,0,0,0,7.51,1.41c5.79-1.13,10.43.79,13.87,5.72a8,8,0,0,0,3.69,3c7.64,2.47,11.82,7.68,13,15.5.1.64.35,1.27.59,2.16,8.63.74,14.13,5.23,15.63,14,7.93,3.12,11.75,8.64,10.74,17.17a3,3,0,0,0,.77,2.19c6.09,6.07,6.16,12.89,2.58,20,6.16,10,5.42,16.29-3.6,24.16.78,10.47.15,12-7.91,19.29,2,3.33,4,6.71,6,10.15.66,1.14,1.59,2.43,1.51,3.59a5.1,5.1,0,0,1-2,3.53c-.8.49-2.61.06-3.56-.58s-1.64-2-2.33-3.17c-5-8.07-9.89-16.16-15.16-24.79L175.36,124c.94,5.43,1.63,10.68,2.78,15.82,5.15,23.07,10.27,46.15,15.74,69.14,2.25,9.43,5.91,18.4,12.28,26,7.35,8.76,16.79,11.17,27.38,7,10.32-4,15.73-12.57,15-24-.65-10.55-4.69-20.06-9.52-29.23S229,170.41,224,161.22c-.72-1.31-1.81-2.65-1.88-4s.51-3.56,1.52-4.11,3,.26,4.36.82c.62.25.92,1.33,1.31,2.06,6.43,11.85,13.27,23.5,19.12,35.62,3.36,7,5.13,14.71,7.62,22.1v12c-.92,2.47-1.65,5-2.78,7.39-6,12.51-16.74,17.68-29.88,18.22-11.14.45-22.32.1-33.48.09-1.16,0-2.6.27-3.41-.3-1.23-.85-2.81-2.35-2.78-3.55s1.68-2.86,3-3.29c1.82-.6,4-.28,5.94-.3,3.53,0,7.06,0,10.59,0-14.78-16.71-17-37.6-22.73-57.11l-21.69-5.34C150.23,189.66,139.4,193,127.57,193c-12,0-22.94-3.57-31.35-11.52-6.18,1.49-11.63,3-17.18,4-2.82.5-3.91,1.74-4.47,4.36-1,4.88-2.35,9.7-3.62,14.53-2.75,10.48-5.68,20.91-11.77,30.06-2,3-4.32,5.77-7.09,9.44H165.6a35.34,35.34,0,0,1,4.49.13c2,.27,3.8,1.58,3.36,3.55-.32,1.4-2,2.84-3.45,3.55-1.22.61-2.94.22-4.44.22H35.66c-1.5,0-3,0-4.49-.08-12.35-1-26.67-7.76-30.25-23.92A7.48,7.48,0,0,0,0,225.69ZM208.29,119.9c4.73-2.56,5.85-4.44,4.66-9.33-1.07-4.36.17-7.31,3.79-9.82,4.06-2.81,5-7,2-10.78s-3.32-7.22-.85-11.4c2-3.41,1.62-6.54-1.36-9-3.28-2.74-3.8-5.83-3.36-9.76.52-4.68-1.37-7.33-6-8.23-3.48-.67-4.65-2.43-4.95-5.71-.49-5.36-2.24-7.07-7.25-7.93-6.53-1.13-7.76-2.37-8.74-8.83-.86-5.65-3.51-8.59-9.19-9.62-2.5-.45-4.14-1.36-5.33-3.78-2.21-4.49-3.53-5.09-8.31-4.31-4,.64-7.56.41-10.89-2.15a7.29,7.29,0,0,0-8.44-.61A13.31,13.31,0,0,1,134.42,10a7.85,7.85,0,0,0-3.94.1,12.24,12.24,0,0,1-10.1-1.18,8.33,8.33,0,0,0-9.38.24,11.37,11.37,0,0,1-10.52,1.14c-4.45-1.67-8.2-.58-11,3.32A13.59,13.59,0,0,1,80,19.32c-6.9,1.06-9.17,3.59-10.3,10.74C68.9,35,67,37,62,37.82c-6.36,1.1-7.55,2.2-8.28,8.54-.33,2.87-1.45,4.41-4.42,5.09-5.37,1.24-7.05,3.54-6.43,8.87.45,3.82-.46,6.65-3.46,9.24s-3.33,5.65-1.32,9c2.47,4.17,2.13,7.6-.89,11.4a6.87,6.87,0,0,0,1.68,10.47c4.08,2.7,5.26,5.91,4.09,10.62-1.09,4.45.2,6.38,4.76,8.75l10.2-14.07c0-3.07,0-7.21,0-11.36,0-7.71,2.48-14.66,7.89-19.92,8.23-8,17-15.41,25.7-22.92,3-2.62,6.74-2.82,10.33-1.13s5.36,4.89,5.26,8.91c-.06,2.44-.35,4.88-.52,7.19,12.18,7.5,33.13,7.28,42.87-.34-.19-1.78-.45-3.58-.57-5.39-.29-4.5.91-8.39,5.29-10.39,4.2-1.91,8.06-1,11.52,2.09,7.31,6.55,14.71,13,22,19.53A29.54,29.54,0,0,1,198.06,96c-.1,3.65,0,7.3,0,9.79C201.83,111,205.07,115.46,208.29,119.9Zm-106.68-47c-2.15,3.08-4,6-6.16,8.76-8,10.17-9.78,22-9.16,34.4a4.7,4.7,0,0,0,.77,2.78,5.42,5.42,0,0,1,.94,6.06c-2.64,6.66,0,11.9,4.26,16.77,1.1,1.25,2.18,2.52,3.3,3.75,12.27,13.57,30,18.35,46.79,12.28,11.62-4.2,19.8-12.57,26-23a7.74,7.74,0,0,0,.57-4.31c-.35-4.45-3-9,.69-13.26.18-.2.06-.65.09-1,1.39-16.77-4.21-31-15.77-43C136.69,81.27,119.42,81.38,101.61,72.86Zm.54,103.5c12.51,13.77,42.81,11.18,50.69-.2-2.24-3.87-4.46-7.73-6.89-11.95a49.35,49.35,0,0,1-36.84-.31C106.6,168.38,104.36,172.4,102.15,176.36Zm-23-60.76c0-3.77,0-6.41,0-9a49.17,49.17,0,0,1,8.56-26.7c1.83-2.78,3.88-5.4,5.79-8.12s4.14-5.31,5.51-8.29c.77-1.66.88-4.63-.13-5.88-1.75-2.18-3.44.19-4.87,1.45-7.12,6.26-14.26,12.5-21.32,18.82a21,21,0,0,0-7.47,15.28c-.19,5.77.37,11.57.6,17.36Zm110.94-5.1c.28-5.6.69-10.73.75-15.86a20.75,20.75,0,0,0-6.46-15.71c-7.6-7.18-15.55-14-23.46-20.83-.83-.72-2.63-1.27-3.43-.85s-1.45,2.17-1.39,3.29a8.94,8.94,0,0,0,1.51,4.07c1.78,2.8,3.71,5.51,5.7,8.17,6.85,9.15,12.55,18.82,13.33,30.58.25,3.74,0,7.51,0,12.28Zm-36.76,50.94c4.34,11.85,13.33,17.85,25.17,16.29l-6.88-33.07ZM77.41,178.21C90,177.19,99,173,101.79,160.82L84.34,144.63C82,155.87,79.78,166.75,77.41,178.21Z"/><path class="cls-1" d="M31,18.65c-1.69,1.49-2.73,2.56-3.92,3.45-3.41,2.55-8,1.85-9.76-2A100.34,100.34,0,0,1,12.82,6.94c-.6-2,.56-3.63,2.64-4.1a3.51,3.51,0,0,1,4.3,2.52c1.15,3.11,2.15,6.26,3.42,10,1.44-1.18,2.49-2.08,3.59-2.92,4-3.11,8.69-2.13,10.68,2.5,1.65,3.81,3,7.77,4.27,11.71.66,2,.71,4.1-1.69,5.07-2.55,1-4.17-.31-5.08-2.59C33.68,25.91,32.52,22.65,31,18.65Z"/><path class="cls-1" d="M234.72,15.21c1.21-3.29,2.34-6.19,3.33-9.13.79-2.33,2.12-3.91,4.73-3.18s2.85,3,2.16,5.24c-1.14,3.64-2.27,7.3-3.72,10.81-2.14,5.18-6.81,6.08-11.2,2.36-.85-.73-1.73-1.43-3.15-2.61-1.09,3-2,5.61-3,8.19-.46,1.23-.71,2.87-1.62,3.54-1.14.85-3.2,1.58-4.26,1.09a4.43,4.43,0,0,1-1.82-3.93,84.31,84.31,0,0,1,4.57-13.13c1.88-4.12,6.37-5,10.09-2.34C232.06,13,233.16,14,234.72,15.21Z"/><path class="cls-1" d="M230,127.44c-3.7.07-5.86-1.53-5.63-3.72.28-2.66,2.19-3.47,4.56-3.53,2.94-.07,5,1.47,4.77,3.75A3.56,3.56,0,0,1,230,127.44Z"/><path class="cls-1" d="M9.57,115.21c3.1,0,4.75,1.3,4.81,3.52s-1.88,3.82-4.88,3.7c-2.74-.1-4.5-1.58-4.31-3.77C5.44,115.84,7.49,115.29,9.57,115.21Z"/><path class="cls-1" d="M244.11,127.45c-1.81-.11-3.79-.72-4-3.47-.19-2.32,1.72-3.87,4.69-3.78,2.29.07,4.31.67,4.51,3.46C249.45,126,247.56,127.5,244.11,127.45Z"/><path class="cls-1" d="M25.43,122.43c-2.78,0-4.45-1.29-4.52-3.53s1.5-3.62,4.33-3.68c3.06-.08,4.9,1.36,4.79,3.74C29.93,121.14,28.23,122.43,25.43,122.43Z"/><path class="cls-1" d="M21.16,110.67c.06,2.43-.78,4.23-3.48,4.41-2.33.15-3.69-1.74-3.62-4.75,0-2.39.83-4.25,3.49-4.48C19.78,105.66,21.21,107.68,21.16,110.67Z"/><path class="cls-1" d="M233.24,115.37c.07-2.73,1.45-4.44,3.64-4.49s3.68,1.89,3.55,4.94c-.13,2.84-1.52,4.39-3.78,4.22S233.18,118.11,233.24,115.37Z"/><path class="cls-1" d="M21.17,127.15c0,2.4-.62,4.31-3.41,4.51-2.23.16-3.61-1.48-3.7-4.23-.08-3,1.4-4.9,3.68-4.84S21.16,124.36,21.17,127.15Z"/><path class="cls-1" d="M240.43,132c0,3.13-1.26,4.75-3.49,4.77s-3.63-1.64-3.69-4.38c-.06-3,1.42-4.89,3.81-4.75C240,127.77,240.26,130,240.43,132Z"/></g></g></svg>