<svg xmlns="http://www.w3.org/2000/svg" viewBox="0 0 254.59 256"><defs><style>.cls-1{fill:#24439c;}</style></defs><g id="Слой_2" data-name="Слой 2"><g id="Слой_1-2" data-name="Слой 1"><path class="cls-1" d="M25.64,82.33c-3.25-4.7-6.35-8.84-9.09-13.2C7.19,54.25,1,38.25.13,20.5a45.85,45.85,0,0,1-.07-5.37C.71,5.82,6.93,0,16,.08S31.47,6.24,31.5,15.55A64.86,64.86,0,0,0,39.73,47c2.74,5,6.1,9.67,9,14.21,53.4-24.82,105.82-24.8,158.72,1,8.54-12.3,14.33-26,15.41-41.47.14-2,0-4,.14-6,.46-6.77,4.43-12,10.42-13.87,6.92-2.14,14.74-.33,18.15,5.37a23.67,23.67,0,0,1,3,11.8c-.18,19.17-6.43,36.68-15.79,53.18-2.36,4.14-6.8,7.92-7.15,12.13s3.46,8.45,5.25,12.76c11.63,27.93,2.65,57.27-23.06,75.79-14.28,10.27-30.28,16.57-47.24,20.7-3.09.75-6.2,1.45-9.25,2.36-7.79,2.3-10.88,6.21-11,14.22-.14,8.56.35,17.15-.21,25.67a30.31,30.31,0,0,1-3.68,12.91c-4.13,7.07-12.52,9.69-20.3,7.47s-13.48-9.31-13.79-18.23c-.3-8.35-.09-16.71-.12-25.07,0-11-3-14.82-13.56-18-10.07-3.06-20.3-5.75-30.11-9.51a93,93,0,0,1-35.89-24c-18.64-20.36-21.26-48.67-6.61-72.28C23.23,86.29,24.36,84.42,25.64,82.33Zm202.18,26.32c-1.07-6.39-4.1-12-7.65-17.19-4.94-7.3-5-7.66.05-14.55,10.69-14.68,18.29-30.75,21.17-48.79A57.68,57.68,0,0,0,242,16.23c-.06-1.28-1.91-2.47-2.94-3.7a18.8,18.8,0,0,0-3.25,2.88c-.51.69-.32,1.92-.34,2.92-.54,20.47-8.31,38.25-20.25,54.48-3.94,5.34-6.38,5.64-12.08,2.47C196.51,71.61,190,67.38,183,65,138.33,50.16,94.65,50.73,52.7,74.38c-4.34,2.45-6.61,2.11-10-1.54a96,96,0,0,1-16.67-25.3,73.93,73.93,0,0,1-7-30c0-2.43-.15-5.18-3.61-5-3,.19-3.08,2.63-3,4.91a85.48,85.48,0,0,0,.63,8.92c2.72,17.55,10.3,33,21.44,46.58,6,7.34,7.86,8.73.47,18.25a43.07,43.07,0,0,0-9.39,26.35c3,1,5.78,2.4,8.62,2.62,9.49.74,19.13,2.22,28.5,1.3,29.29-2.89,58.46-6.9,87.72-10.18,15.61-1.75,31.26-3.41,46.94-4.14C207.27,106.71,217.18,108.06,227.82,108.65ZM26.81,132c.47,1.68.67,2.63,1,3.54,5,13.3,14.69,22.44,26.4,29.76,13.51,8.44,28.54,12.88,43.81,16.75,15.56,3.95,22.35,12.5,22.73,28.49.18,7.35,0,14.72.08,22.08a27.1,27.1,0,0,0,.66,6.49c.72,2.83,2.93,4.19,5.81,4.2a5.54,5.54,0,0,0,5.8-4.23,23.66,23.66,0,0,0,.61-5.9c.07-7.56-.09-15.12.07-22.68.36-16.4,7.4-24.87,23.32-28.42,15.6-3.48,30.77-8.16,44.36-16.88,12.92-8.3,23-18.9,26.74-34.4,1.58-6.64,1.27-7.78-5.62-8.92a146.93,146.93,0,0,0-24.85-2.17c-25.53.16-50.63,4.9-75.88,8C90.57,131.62,59.4,137.81,26.81,132Z"/></g></g></svg>