<svg xmlns="http://www.w3.org/2000/svg" viewBox="0 0 249.8 256"><defs><style>.cls-1{fill:#24439c;}</style></defs><g id="Слой_2" data-name="Слой 2"><g id="Слой_1-2" data-name="Слой 1"><path class="cls-1" d="M61,0c1.91.5,3.81,1,5.73,1.49a54.39,54.39,0,0,1,42.13,52.86c.15,21.66,0,43.32,0,65v6.76c1.84-1.72,3-2.72,4-3.78,14.26-14.24,28.59-28.43,42.75-42.78,9.61-9.75,21-15.56,34.67-17a51.71,51.71,0,0,1,21.19,2.27c3.89,1.22,5.31,3.53,4.33,6.56-.86,2.67-3.32,3.75-7,2.73-18.51-5.16-34-.22-47.27,13.4-10.8,11.11-21.89,21.94-32.84,32.91-1.15,1.15-2.22,2.38-3,3.26l62.69,62.64a24.91,24.91,0,0,0,2.39-2c11.8-11.77,23.63-23.5,35.34-35.35,12.5-12.65,16.76-27.59,12-44.9a10.83,10.83,0,0,1-.61-3.43c.15-2.37,1.35-4.13,3.85-4.54,2.66-.45,4.81.62,5.45,3.22,1.18,4.83,2.58,9.72,2.83,14.64a52.72,52.72,0,0,1-12.85,37.83c-1.82,2.16-3.82,4.18-5.82,6.18-26.15,26.16-52.41,52.21-78.41,78.52-9.65,9.77-20.47,16.94-34.31,18.86A4.47,4.47,0,0,0,117,256H104a19.12,19.12,0,0,0-2.79-.95c-15-2.7-26.75-10.49-35.52-22.87-.86-1.21-1.7-2.43-2.6-3.72-1.6.13-3.07.26-4.54.36C27.14,230.9.35,206.51.16,175.14Q-.2,114.47.16,53.78A54.08,54.08,0,0,1,40.83,1.9L48,0ZM98.49,109.33a4.93,4.93,0,0,0,.48-1.24c0-19,.57-38-.15-57C98,28.67,78.17,10.3,55.71,9.94,30.26,9.54,10.09,29.21,10,54.68c-.09,16.66,0,33.32,0,50,0,1.46.13,2.93.22,4.67Zm19,22.63a5.69,5.69,0,0,0-1.08.79c-13,12.94-26.18,25.61-38.75,38.91-16.23,17.17-15.52,44.06,1,61,16.7,17.08,43.67,18.39,61.29,2.13C153.82,222,166.73,208.31,180,195c.21-.2.25-.58.16-.35ZM99.05,119.75H10.17c-.09,1.23-.22,2-.22,2.87,0,17.66-.34,35.33.1,53,.43,17.23,8.78,30.09,23.83,38.37a39.62,39.62,0,0,0,24.73,4.76c-.18-1-.27-1.84-.46-2.62-5.25-21.68.45-40.06,16.44-55.49,7.43-7.17,14.68-14.54,21.89-21.93a8.26,8.26,0,0,0,2.45-4.56C99.26,129.5,99.05,124.83,99.05,119.75Z"/><path class="cls-1" d="M230.45,86.46a4.69,4.69,0,0,1-4.69-4.7,4.54,4.54,0,0,1,5-4.83,4.49,4.49,0,0,1,4.44,4.86A4.69,4.69,0,0,1,230.45,86.46Z"/></g></g></svg>